<svg width="70" height="55" viewBox="0 0 70 55" fill="none" xmlns="http://www.w3.org/2000/svg">
<path fill-rule="evenodd" clip-rule="evenodd" d="M7.06849 23.6641V25.436H2.08145V27.4951H6.65942V29.1327H2.08145V31.4851H7.17678V33.2571H0V23.6641H7.06849Z" fill="#5C5754"/>
<path fill-rule="evenodd" clip-rule="evenodd" d="M14.8167 23.8716C14.4798 23.731 14.0948 23.6638 13.6737 23.6638H8.58435V33.269H10.6598V29.5174H12.7352C13.2586 29.5174 13.6316 29.6335 13.8602 29.8657C14.0888 30.0978 14.2391 30.4645 14.3113 30.9655C14.3655 31.3504 14.4076 31.7537 14.4316 32.1753C14.4557 32.5969 14.5279 32.9574 14.6422 33.2629H16.7176C16.6214 33.1285 16.5492 32.9696 16.5011 32.7741C16.4529 32.5847 16.4168 32.3769 16.3928 32.1631C16.3687 31.9492 16.3507 31.7415 16.3447 31.5337C16.341 31.4061 16.335 31.29 16.3295 31.184C16.3261 31.1175 16.3229 31.0549 16.3206 30.996C16.3086 30.7516 16.2725 30.5133 16.2243 30.2689C16.1702 30.0245 16.098 29.8046 15.9897 29.6029C15.8875 29.4013 15.7491 29.2241 15.5807 29.0774C15.4122 28.9308 15.2017 28.8208 14.943 28.7475V28.7231C15.4724 28.5092 15.8514 28.1976 16.086 27.7821C16.3206 27.3666 16.4349 26.8778 16.4349 26.3156C16.4349 25.949 16.3687 25.6069 16.2424 25.2891C16.1161 24.9653 15.9296 24.6903 15.6889 24.4459C15.4483 24.2015 15.1535 24.0121 14.8167 23.8716ZM14.0047 27.6789C13.7701 27.8927 13.4092 28.0027 12.9339 28.0027V27.9966H10.66V25.2959H12.9339C13.4092 25.2959 13.7641 25.4059 14.0047 25.6136C14.2393 25.8214 14.3597 26.1635 14.3597 26.6279C14.3597 27.1167 14.2454 27.465 14.0047 27.6789Z" fill="#5C5754"/>
<path fill-rule="evenodd" clip-rule="evenodd" d="M23.7322 33.1845C23.281 33.38 22.8298 33.4717 22.3666 33.4717C21.6447 33.4717 20.995 33.3433 20.4115 33.0867C19.834 32.8301 19.3467 32.4818 18.9497 32.0297C18.5526 31.5836 18.2458 31.0581 18.0353 30.4532C17.8247 29.8483 17.7164 29.1945 17.7164 28.498C17.7164 27.7831 17.8247 27.1171 18.0353 26.4999C18.2458 25.8889 18.5526 25.3512 18.9497 24.893C19.3467 24.4347 19.834 24.0803 20.4115 23.8176C20.989 23.5548 21.6387 23.4265 22.3666 23.4265C22.8539 23.4265 23.3231 23.4998 23.7743 23.6465C24.2315 23.7931 24.6405 24.0131 25.0075 24.3003C25.3745 24.5874 25.6753 24.9418 25.9159 25.3634C26.1565 25.785 26.3009 26.2678 26.355 26.8177H24.3698C24.2435 26.28 24.0089 25.8767 23.654 25.6079C23.299 25.339 22.8719 25.2046 22.3726 25.2046C21.9034 25.2046 21.5063 25.2962 21.1815 25.4795C20.8566 25.6628 20.592 25.9072 20.3874 26.2189C20.1829 26.5305 20.0385 26.8788 19.9423 27.2759C19.852 27.6731 19.8039 28.0764 19.8039 28.498C19.8039 28.9012 19.852 29.2923 19.9423 29.6711C20.0325 30.05 20.1829 30.3921 20.3874 30.6976C20.592 31.0031 20.8566 31.2476 21.1815 31.4309C21.5063 31.6142 21.9034 31.7058 22.3726 31.7058C23.0584 31.7058 23.5938 31.5286 23.9668 31.1742C24.3398 30.8198 24.5623 30.3066 24.6225 29.6345H22.529V28.0641H26.4994V33.2517H25.1759L24.9654 32.1641C24.5924 32.6529 24.1834 32.9951 23.7322 33.1845Z" fill="#5C5754"/>
<path d="M21.4261 53.9567C21.4261 53.9567 35.4913 40.6308 32.5867 26.1735C32.253 24.5592 31.4103 17.8353 15.9597 9.03091C26.2141 12.4895 30.0763 14.4793 40.9929 11.035C42.6878 9.81445 48.2104 9.07352 50.5407 0.0199541C50.855 -0.538386 51.3046 14.5156 45.7914 25.0455C45.6323 25.5991 35.997 43.3603 25.0702 51.6178C24.683 51.8737 21.4261 53.9567 21.4261 53.9567Z" fill="url(#paint0_linear)"/>
<path d="M68.5613 1.42798C68.5613 1.42798 53.3658 13.4974 54.9696 28.1361C55.1581 29.7715 55.3979 36.5365 70.0001 46.6148C60.0962 42.2999 55.2966 39.3501 43.9278 42.5731C42.937 43.3847 39.6573 43.5804 34.7579 52.6444C34.3951 53.1735 35.2893 38.1495 41.7186 28.1361C41.9264 27.5986 54.0283 10.2865 65.6463 2.99561C66.0548 2.7738 68.5613 1.42798 68.5613 1.42798Z" fill="url(#paint1_linear)"/>
<defs>
<linearGradient id="paint0_linear" x1="61.4774" y1="-3.66901" x2="14.7936" y2="-10.3741" gradientUnits="userSpaceOnUse">
<stop stop-color="#272623"/>
<stop offset="1" stop-color="#807F7D"/>
</linearGradient>
<linearGradient id="paint1_linear" x1="39.1759" y1="63.6058" x2="69.9033" y2="58.8993" gradientUnits="userSpaceOnUse">
<stop stop-color="#777674"/>
<stop offset="1" stop-color="#363431"/>
</linearGradient>
</defs>
</svg>
