<svg width="498.09397" height="495.79506" xmlns="http://www.w3.org/2000/svg">

 <g>
  <title>Layer 1</title>
  <circle id="svg_1" r="236.345" fill="#fff" cy="455.121" cx="244.832"/>
  <path id="svg_2" d="m249.832,21.88c60.698,0 117.763,23.637 160.684,66.557c42.92,42.92 66.557,99.985 66.557,160.684c0,60.698 -23.637,117.763 -66.557,160.684c-42.921,42.92 -99.986,66.557 -160.684,66.557s-117.763,-23.637 -160.684,-66.557c-42.92,-42.92 -66.557,-99.985 -66.557,-160.684s23.638,-117.763 66.558,-160.683c42.92,-42.921 99.985,-66.558 160.683,-66.558m0,-4.201c-127.822,0 -231.442,103.62 -231.442,231.443s103.62,231.443 231.442,231.443s231.443,-103.62 231.443,-231.443s-103.621,-231.443 -231.443,-231.443z"/>
  <path id="svg_3" d="m249.832,78.953c93.831,0 170.168,76.337 170.168,170.168s-76.337,170.168 -170.168,170.168s-170.168,-76.337 -170.168,-170.168s76.337,-170.168 170.168,-170.168m0,-4.201c-96.302,0 -174.37,78.068 -174.37,174.37s78.068,174.37 174.37,174.37s174.37,-78.068 174.37,-174.37s-78.068,-174.37 -174.37,-174.37z"/>
  <path id="svg_4" fill="#35adea" d="m227.248,62.168c5.246,0.318 10.964,-1.545 10.964,-8.732c0,-5.712 -4.924,-5.909 -4.924,-5.909s-4.826,1.615 -4.447,8.902c0,0 -9.396,0.113 -9.011,-7.785c0.328,-6.732 6.073,-8.6 10.307,-8.6c5.58,0 14.575,4.727 14.575,13.459s-3.371,16.697 -23.154,16.697l-6.453,8.02c11.223,-2.268 22.834,-3.468 34.726,-3.468s23.503,1.2 34.726,3.468l-6.453,-8.02c-19.783,0 -23.153,-7.966 -23.153,-16.697s8.994,-13.459 14.575,-13.459c4.234,0 9.979,1.868 10.307,8.6c0.385,7.899 -9.011,7.785 -9.011,7.785c0.379,-7.287 -4.447,-8.902 -4.447,-8.902s-4.924,0.197 -4.924,5.909c0,7.186 5.718,9.049 10.964,8.732c4.821,-0.292 12.868,-3.92 12.868,-13.393c0,-9.216 -7.55,-15.297 -16.544,-15.297s-13.065,4.954 -13.065,4.954c-0.657,-8.272 -5.843,-10.863 -5.843,-10.863s-5.186,2.591 -5.843,10.863c0,0 -4.07,-4.954 -13.065,-4.954s-16.544,6.081 -16.544,15.297c0.002,9.473 8.048,13.101 12.869,13.393z"/>
  <path id="svg_5" d="m285.878,79.022l-1.424,-0.287c-22.707,-4.589 -46.541,-4.589 -69.244,0l-1.424,0.287l7.519,-9.348l0.252,0c19.94,0 22.627,-8.175 22.627,-16.172c0,-8.612 -9.007,-12.933 -14.049,-12.933c-4.538,0 -9.491,2.129 -9.782,8.101c-0.096,1.948 0.439,3.54 1.586,4.731c1.931,2.001 5.098,2.403 6.356,2.484c-0.123,-7.116 4.618,-8.786 4.825,-8.856l0.09,-0.03l0.096,0.003c0.055,0.003 5.429,0.288 5.429,6.434c0,2.845 -0.86,5.096 -2.556,6.693c-2,1.881 -5.209,2.797 -8.963,2.562c-5.371,-0.325 -13.362,-4.301 -13.362,-13.917c0,-9.02 7.339,-15.822 17.069,-15.822c6.967,0 11.04,2.869 12.658,4.325c1.018,-7.598 5.802,-10.072 6.015,-10.178l0.234,-0.117l0.234,0.117c0.213,0.106 4.998,2.58 6.015,10.178c1.619,-1.456 5.691,-4.325 12.658,-4.325c9.731,0 17.069,6.802 17.069,15.822c0,9.616 -7.991,13.592 -13.362,13.917c-3.765,0.236 -6.961,-0.681 -8.963,-2.562c-1.697,-1.597 -2.556,-3.849 -2.556,-6.693c0,-6.146 5.373,-6.431 5.429,-6.434l0.098,-0.002l0.09,0.03c0.207,0.07 4.946,1.74 4.825,8.855c1.26,-0.082 4.436,-0.487 6.36,-2.488c1.145,-1.19 1.678,-2.781 1.582,-4.727c-0.291,-5.972 -5.244,-8.101 -9.782,-8.101c-5.043,0 -14.049,4.322 -14.049,12.933c0,7.997 2.688,16.172 22.627,16.172l0.252,0l7.521,9.348zm-64.067,-8.297l-5.392,6.701c21.946,-4.244 44.875,-4.246 66.825,0l-5.392,-6.701c-20.754,-0.074 -23.425,-9.236 -23.425,-17.222c0,-9.311 9.682,-13.984 15.1,-13.984c5.022,0 10.504,2.39 10.832,9.1c0.109,2.249 -0.523,4.103 -1.879,5.511c-2.757,2.858 -7.449,2.826 -7.663,2.826l-0.546,-0.006l0.027,-0.546c0.328,-6.307 -3.348,-8.079 -4.001,-8.343c-0.671,0.063 -4.321,0.626 -4.321,5.376c0,2.543 0.749,4.537 2.226,5.928c2.411,2.27 6.161,2.4 8.182,2.279c4.973,-0.302 12.373,-3.978 12.373,-12.869c0,-8.421 -6.887,-14.772 -16.019,-14.772c-8.615,0 -12.619,4.715 -12.66,4.763l-0.825,0.996l-0.103,-1.288c-0.552,-6.947 -4.321,-9.691 -5.32,-10.301c-0.999,0.61 -4.768,3.354 -5.32,10.301l-0.103,1.289l-0.825,-0.997c-0.041,-0.048 -4.046,-4.763 -12.66,-4.763c-9.132,0 -16.019,6.351 -16.019,14.772c0,8.891 7.4,12.567 12.373,12.869c2.013,0.115 5.771,-0.01 8.182,-2.279c1.477,-1.391 2.226,-3.385 2.226,-5.928c0,-4.75 -3.65,-5.314 -4.321,-5.376c-0.652,0.264 -4.329,2.036 -4.001,8.343l0.027,0.546l-0.546,0.006c-0.201,0.01 -4.905,0.033 -7.663,-2.826c-1.356,-1.407 -1.988,-3.262 -1.879,-5.511c0.328,-6.71 5.81,-9.1 10.832,-9.1c5.418,0 15.1,4.673 15.1,13.984c0.003,7.985 -2.668,17.148 -23.422,17.222z"/>
  <path id="svg_6" fill="#35adea" d="m156.076,85.808c4.954,-1.755 9.491,-5.702 6.687,-12.318c-2.229,-5.259 -6.839,-3.518 -6.839,-3.518s-3.813,3.37 -0.621,9.931c0,0 -8.607,3.772 -11.335,-3.651c-2.325,-6.326 2.235,-10.288 6.133,-11.941c5.138,-2.178 15.264,-1.336 18.671,6.703c3.408,8.039 3.414,16.688 -14.8,24.409l-2.811,9.903c9.448,-6.469 19.67,-12.105 30.619,-16.746s22.108,-8.068 33.326,-10.36l-9.071,-4.866c-18.214,7.721 -24.426,1.702 -27.833,-6.337s3.028,-15.901 8.166,-18.079c3.899,-1.653 9.917,-2.174 12.846,3.896c3.437,7.122 -5.258,10.685 -5.258,10.685c-2.495,-6.857 -7.568,-6.46 -7.568,-6.46s-4.456,2.103 -2.227,7.362c2.805,6.616 8.796,6.1 13.502,3.76c4.325,-2.15 10.317,-8.631 6.62,-17.353c-3.597,-8.485 -12.921,-11.137 -21.202,-7.627s-10.095,9.66 -10.095,9.66c-3.833,-7.36 -9.619,-7.721 -9.619,-7.721s-3.764,4.409 -1.14,12.282c0,0 -5.681,-2.973 -13.962,0.538c-8.281,3.51 -12.859,12.056 -9.262,20.54c3.696,8.721 12.52,8.921 17.073,7.308z"/>
  <path id="svg_7" d="m150.257,106.579l3.276,-11.541l0.232,-0.097c18.358,-7.783 17.644,-16.358 14.521,-23.722c-1.851,-4.366 -5.554,-6.151 -8.336,-6.88c-3.258,-0.854 -6.959,-0.68 -9.645,0.455c-4.179,1.771 -7.909,5.662 -5.847,11.276c0.673,1.83 1.785,3.087 3.305,3.735c2.548,1.089 5.634,0.224 6.824,-0.192c-2.889,-6.502 0.825,-9.891 0.987,-10.035l0.164,-0.097c0.045,-0.018 5.106,-1.857 7.507,3.805c1.11,2.62 1.196,5.028 0.256,7.162c-1.106,2.512 -3.681,4.591 -7.252,5.856l0.002,0c-5.076,1.792 -13.98,1.258 -17.734,-7.599c-3.518,-8.305 0.581,-17.43 9.54,-21.228c6.417,-2.72 11.284,-1.668 13.346,-0.959c-2.031,-7.392 1.407,-11.537 1.561,-11.718l0.17,-0.2l0.263,0.016c0.238,0.014 5.609,0.427 9.511,7.024c0.921,-1.973 3.551,-6.204 9.967,-8.922c4.23,-1.792 8.748,-2.039 12.73,-0.7c4.146,1.397 7.4,4.453 9.16,8.604c3.752,8.854 -2.054,15.632 -6.871,18.028c-3.393,1.686 -6.678,2.088 -9.253,1.139c-2.185,-0.807 -3.857,-2.545 -4.967,-5.164c-2.398,-5.657 2.439,-8.019 2.489,-8.042l0.183,-0.048c0.205,-0.021 5.234,-0.329 7.897,6.269c1.128,-0.567 3.894,-2.179 4.885,-4.771c0.591,-1.543 0.46,-3.216 -0.388,-4.97c-2.599,-5.388 -7.995,-5.414 -12.168,-3.642c-4.643,1.969 -11.247,9.463 -7.886,17.391c2.004,4.729 4.565,7.522 8.059,8.79c4.581,1.662 10.824,0.767 19.084,-2.732l0.232,-0.098l10.574,5.672l-1.424,0.291a175.081,175.081 0 0 0 -63.754,27.024l-1.2,0.82zm4.151,-10.771l-2.349,8.273a176.313,176.313 0 0 1 29.516,-15.985a176.276,176.276 0 0 1 32.011,-10.096l-7.579,-4.065c-8.401,3.526 -14.817,4.395 -19.622,2.654c-4.975,-1.805 -7.33,-6.21 -8.668,-9.367c-3.633,-8.573 3.455,-16.654 8.444,-18.768c4.622,-1.964 10.605,-1.9 13.526,4.15c0.977,2.028 1.118,3.982 0.419,5.808c-1.418,3.698 -5.767,5.516 -5.952,5.592l-0.505,0.207l-0.189,-0.514c-2.113,-5.807 -6.062,-6.12 -6.887,-6.12l-0.049,0c-0.595,0.321 -3.736,2.264 -1.881,6.637c0.991,2.342 2.46,3.886 4.364,4.589c3.108,1.15 6.61,-0.193 8.42,-1.093c4.462,-2.22 9.839,-8.493 6.37,-16.678c-1.641,-3.871 -4.669,-6.72 -8.529,-8.019c-3.74,-1.258 -7.993,-1.02 -11.983,0.67c-7.962,3.375 -9.78,9.266 -9.796,9.326l-0.369,1.248l-0.601,-1.155c-3.219,-6.179 -7.761,-7.235 -8.918,-7.406c-0.681,0.951 -3.079,4.948 -0.876,11.559l0.408,1.228l-1.149,-0.596c-0.055,-0.028 -5.578,-2.807 -13.516,0.556c-8.407,3.565 -12.269,12.098 -8.982,19.851c3.471,8.189 11.721,8.686 16.413,7.019l0.002,0c1.908,-0.675 5.307,-2.261 6.641,-5.289c0.817,-1.858 0.728,-3.986 -0.265,-6.328c-1.851,-4.375 -5.435,-3.467 -6.075,-3.264c-0.496,0.498 -3.19,3.565 -0.429,9.242l0.24,0.491l-0.501,0.22c-0.183,0.079 -4.509,1.942 -8.157,0.389c-1.799,-0.766 -3.106,-2.227 -3.882,-4.34c-2.318,-6.306 1.797,-10.646 6.422,-12.605c2.887,-1.227 6.842,-1.417 10.322,-0.505c4.253,1.114 7.464,3.773 9.037,7.485c3.118,7.353 4.234,16.831 -14.846,24.999z"/>
  <path id="svg_8" fill="#35adea" d="m302.003,68.18c4.706,2.34 10.697,2.856 13.502,-3.76c2.229,-5.259 -2.227,-7.362 -2.227,-7.362s-5.073,-0.397 -7.569,6.46c0,0 -8.695,-3.563 -5.258,-10.685c2.93,-6.07 8.948,-5.548 12.846,-3.896c5.138,2.178 11.574,10.04 8.166,18.079s-9.62,14.058 -27.834,6.337l-9.071,4.866a175.096,175.096 0 0 1 33.326,10.36a175.174,175.174 0 0 1 30.619,16.746l-2.811,-9.903c-18.214,-7.721 -18.208,-16.37 -14.8,-24.409s13.534,-8.881 18.671,-6.703c3.899,1.653 8.458,5.615 6.133,11.941c-2.728,7.423 -11.335,3.651 -11.335,3.651c3.193,-6.561 -0.62,-9.931 -0.62,-9.931s-4.61,-1.74 -6.839,3.518c-2.805,6.616 1.733,10.563 6.687,12.318c4.553,1.613 13.377,1.413 17.074,-7.309c3.597,-8.485 -0.981,-17.03 -9.262,-20.54s-13.962,-0.538 -13.962,-0.538c2.624,-7.872 -1.14,-12.282 -1.14,-12.282s-5.786,0.361 -9.619,7.721c0,0 -1.814,-6.15 -10.095,-9.66s-17.605,-0.858 -21.202,7.627c-3.698,8.723 2.295,15.204 6.62,17.354z"/>
  <path id="svg_9" d="m349.406,106.579l-1.2,-0.821a175.054,175.054 0 0 0 -63.752,-27.024l-1.424,-0.291l10.572,-5.672l0.232,0.098c8.258,3.499 14.497,4.394 19.086,2.732c3.494,-1.269 6.054,-4.061 8.059,-8.79c1.851,-4.366 0.558,-8.269 -0.851,-10.775c-1.658,-2.944 -4.353,-5.479 -7.037,-6.616c-4.181,-1.77 -9.571,-1.745 -12.166,3.642c-0.847,1.754 -0.979,3.426 -0.388,4.97c0.991,2.592 3.756,4.204 4.883,4.771c2.663,-6.598 7.669,-6.29 7.899,-6.269l0.183,0.048c0.049,0.024 4.885,2.385 2.489,8.042c-1.11,2.618 -2.782,4.356 -4.967,5.164c-2.579,0.956 -5.863,0.548 -9.255,-1.139c-4.817,-2.396 -10.623,-9.175 -6.871,-18.028c3.523,-8.306 12.937,-11.703 21.893,-7.905c6.413,2.718 9.043,6.951 9.967,8.922c3.902,-6.598 9.271,-7.009 9.509,-7.024l0.263,-0.016l0.17,0.2c0.154,0.181 3.594,4.326 1.563,11.718c2.062,-0.709 6.93,-1.761 13.344,0.959c4.226,1.791 7.55,4.867 9.355,8.662c1.879,3.951 1.947,8.414 0.187,12.566c-3.752,8.852 -12.66,9.396 -17.734,7.599c-3.572,-1.265 -6.147,-3.345 -7.252,-5.858c-0.94,-2.133 -0.853,-4.541 0.256,-7.16c2.402,-5.658 7.462,-3.823 7.509,-3.805l0.164,0.097c0.162,0.145 3.873,3.534 0.985,10.035c1.194,0.417 4.273,1.286 6.826,0.192c1.52,-0.649 2.63,-1.906 3.303,-3.735c2.064,-5.611 -1.666,-9.504 -5.845,-11.276c-2.681,-1.136 -6.374,-1.31 -9.647,-0.455c-2.782,0.729 -6.485,2.514 -8.336,6.88c-2.004,4.729 -2.232,8.511 -0.712,11.904c1.99,4.45 6.973,8.315 15.233,11.816l0.232,0.097l3.275,11.545zm-63.327,-28.578a176.199,176.199 0 0 1 61.525,26.08l-2.349,-8.273c-8.377,-3.584 -13.465,-7.594 -15.551,-12.255c-2.162,-4.833 -0.634,-9.587 0.704,-12.744c1.574,-3.712 4.784,-6.371 9.039,-7.485c3.482,-0.912 7.437,-0.719 10.322,0.505c4.624,1.96 8.738,6.3 6.419,12.605c-0.776,2.113 -2.08,3.574 -3.88,4.34c-3.648,1.549 -7.979,-0.31 -8.159,-0.389l-0.501,-0.22l0.24,-0.491c2.761,-5.678 0.07,-8.745 -0.427,-9.242c-0.64,-0.203 -4.22,-1.113 -6.077,3.264c-0.993,2.341 -1.081,4.469 -0.265,6.327c1.334,3.029 4.735,4.615 6.641,5.29c4.704,1.668 12.948,1.166 16.417,-7.019c1.641,-3.871 1.582,-8.028 -0.166,-11.704c-1.697,-3.562 -4.827,-6.455 -8.818,-8.147c-7.956,-3.375 -13.458,-0.587 -13.512,-0.556l-1.153,0.603l0.41,-1.235c2.185,-6.555 -0.215,-10.61 -0.88,-11.559c-1.163,0.173 -5.699,1.233 -8.916,7.407l-0.597,1.147l-0.371,-1.24c-0.018,-0.059 -1.867,-5.964 -9.796,-9.327c-8.401,-3.562 -17.225,-0.406 -20.514,7.349c-3.469,8.186 1.908,14.459 6.37,16.678c1.812,0.901 5.324,2.241 8.422,1.093c1.904,-0.704 3.373,-2.248 4.364,-4.589c1.863,-4.397 -1.284,-6.32 -1.879,-6.637c-0.644,0.006 -4.78,0.182 -6.939,6.12l-0.189,0.514l-0.505,-0.207c-0.185,-0.076 -4.534,-1.894 -5.952,-5.592c-0.702,-1.826 -0.56,-3.78 0.419,-5.808c2.919,-6.05 8.898,-6.115 13.524,-4.15c2.887,1.223 5.775,3.931 7.542,7.068c2.156,3.831 2.478,7.987 0.905,11.7c-1.338,3.156 -3.693,7.561 -8.67,9.367c-4.797,1.744 -11.22,0.873 -19.622,-2.654l-7.575,4.066z"/>
  <path id="svg_10" fill="#35adea" d="m67.271,202.938c2.184,-4.78 2.502,-10.786 -4.203,-13.371c-5.329,-2.055 -7.284,2.469 -7.284,2.469s-0.229,5.084 6.706,7.352c0,0 -3.274,8.808 -10.506,5.607c-6.163,-2.728 -5.84,-8.76 -4.317,-12.711c2.008,-5.207 9.654,-11.898 17.801,-8.757s14.367,9.151 7.25,27.61l5.162,8.906c1.921,-11.288 4.978,-22.553 9.256,-33.649s9.575,-21.498 15.729,-31.154l-9.805,3.135c-7.117,18.458 -15.761,18.737 -23.908,15.596s-9.322,-13.234 -7.314,-18.44c1.523,-3.951 5.333,-8.639 11.733,-6.523c7.509,2.482 4.022,11.209 4.022,11.209c-6.662,-2.975 -9.905,0.947 -9.905,0.947s-1.588,4.665 3.742,6.72c6.705,2.585 10.501,-2.079 12.091,-7.089c1.462,-4.603 0.972,-13.416 -7.867,-16.824c-8.599,-3.315 -16.989,1.541 -20.224,9.934s-0.078,13.972 -0.078,13.972c-7.954,-2.363 -12.237,1.544 -12.237,1.544s0.551,5.771 8.033,9.36c0,0 -6.087,2.016 -9.322,10.408s-0.278,17.624 8.321,20.939c8.838,3.406 15.117,-2.797 17.124,-7.19z"/>
  <path id="svg_11" d="m78.156,221.561l-6.019,-10.379l0.09,-0.235c3.227,-8.371 3.914,-14.64 2.103,-19.165c-1.383,-3.452 -4.259,-5.919 -9.05,-7.766c-8.038,-3.102 -15.309,3.752 -17.123,8.456c-1.631,4.235 -1.428,9.623 4.04,12.043c1.783,0.791 3.459,0.866 4.985,0.221c2.562,-1.08 4.077,-3.892 4.604,-5.036c-6.682,-2.447 -6.538,-7.469 -6.528,-7.687l0.043,-0.185c0.023,-0.05 2.216,-4.958 7.956,-2.751c2.653,1.024 4.446,2.636 5.326,4.794c1.036,2.543 0.741,5.841 -0.833,9.287c-2.236,4.892 -8.818,10.918 -17.794,7.46c-4.208,-1.623 -7.369,-4.774 -8.902,-8.872c-1.471,-3.937 -1.37,-8.464 0.281,-12.747c2.507,-6.501 6.647,-9.269 8.588,-10.256c-6.723,-3.682 -7.31,-9.036 -7.332,-9.272l-0.025,-0.262l0.193,-0.176c0.176,-0.16 4.21,-3.729 11.661,-1.949c-0.776,-2.035 -1.988,-6.868 0.517,-13.368c3.504,-9.08 12.488,-13.474 20.904,-10.234c8.972,3.459 9.807,12.344 8.18,17.473c-1.145,3.61 -3.141,6.252 -5.615,7.441c-2.103,1.006 -4.514,1.001 -7.166,-0.022c-5.732,-2.211 -4.068,-7.328 -4.05,-7.38l0.092,-0.165c0.14,-0.167 3.402,-3.988 9.997,-1.317c0.377,-1.204 1.141,-4.312 -0.033,-6.827c-0.7,-1.498 -1.992,-2.568 -3.841,-3.179c-5.675,-1.874 -9.446,1.981 -11.079,6.213c-1.814,4.705 -1.02,14.665 7.012,17.762c7.462,2.873 16.056,3.311 23.23,-15.295l0.09,-0.235l11.427,-3.655l-0.78,1.225a175.195,175.195 0 0 0 -15.682,31.06a175.15,175.15 0 0 0 -9.228,33.549l-0.239,1.431zm-4.858,-10.471l4.315,7.439a176.214,176.214 0 0 1 9.033,-32.326a176.413,176.413 0 0 1 15.005,-30.025l-8.192,2.62c-7.536,19.343 -17.045,18.536 -24.496,15.663c-8.686,-3.349 -9.565,-14.063 -7.616,-19.12c1.81,-4.687 6.017,-8.941 12.388,-6.833c2.138,0.707 3.642,1.964 4.466,3.737c1.672,3.59 -0.045,7.98 -0.119,8.165l-0.203,0.508l-0.499,-0.223c-5.732,-2.559 -8.758,0.244 -9.226,0.731c-0.183,0.655 -0.964,4.258 3.463,5.965c2.368,0.913 4.499,0.932 6.333,0.055c2.985,-1.433 4.458,-4.884 5.07,-6.812c1.508,-4.749 0.739,-12.977 -7.556,-16.175c-7.858,-3.034 -16.261,1.111 -19.546,9.631c-3.098,8.037 -0.14,13.472 -0.109,13.526l0.634,1.128l-1.241,-0.367c-6.684,-1.987 -10.597,0.545 -11.526,1.258c0.211,1.151 1.414,5.655 7.698,8.668l1.165,0.56l-1.227,0.412c-0.059,0.019 -5.898,2.061 -8.996,10.098c-1.559,4.044 -1.658,8.306 -0.277,12.001c1.426,3.814 4.372,6.747 8.295,8.26c8.288,3.198 14.388,-2.383 16.46,-6.916c0.841,-1.841 2.066,-5.389 0.814,-8.453c-0.765,-1.879 -2.357,-3.296 -4.729,-4.21c-4.46,-1.723 -6.276,1.492 -6.571,2.097c0.01,0.699 0.341,4.77 6.346,6.734l0.519,0.17l-0.191,0.512c-0.07,0.188 -1.744,4.594 -5.392,6.133c-1.801,0.758 -3.761,0.684 -5.82,-0.229c-6.14,-2.718 -6.399,-8.695 -4.594,-13.381c1.951,-5.056 9.792,-12.409 18.481,-9.059c3.198,1.233 7.679,3.442 9.647,8.356c1.9,4.743 1.243,11.189 -2.006,19.702z"/>
  <path id="svg_12" fill="#35adea" d="m63.725,277.85c0.145,-5.254 -1.906,-10.907 -9.088,-10.67c-5.709,0.188 -5.743,5.116 -5.743,5.116s1.773,4.77 9.043,4.152c0,0 0.423,9.388 -7.484,9.263c-6.739,-0.106 -8.796,-5.786 -8.935,-10.018c-0.184,-5.577 4.244,-14.722 12.971,-15.01s16.799,2.819 17.451,22.591l8.228,6.185c-2.637,-11.143 -4.219,-22.708 -4.61,-34.593s0.426,-23.53 2.323,-34.822l-7.804,6.713c0.651,19.772 -7.199,23.403 -15.926,23.69c-8.727,0.288 -13.747,-8.546 -13.931,-14.123c-0.139,-4.232 1.539,-10.035 8.256,-10.585c7.882,-0.645 8.078,8.75 8.078,8.75c-7.295,-0.139 -8.75,4.738 -8.75,4.738s0.359,4.915 6.068,4.727c7.182,-0.237 8.856,-6.013 8.366,-11.245c-0.451,-4.809 -4.342,-12.732 -13.809,-12.42c-9.211,0.303 -15.04,8.05 -14.744,17.039s5.382,12.894 5.382,12.894c-8.246,0.929 -10.664,6.197 -10.664,6.197s2.76,5.098 11.049,5.482c0,0 -4.817,4.231 -4.521,13.221c0.296,8.989 6.622,16.335 15.833,16.031c9.466,-0.314 12.827,-8.475 12.961,-13.303z"/>
  <path id="svg_13" d="m50.238,291.685c-8.752,0 -15.518,-7.019 -15.834,-16.548c-0.228,-6.963 2.505,-11.129 3.908,-12.795c-7.628,-0.766 -10.26,-5.465 -10.373,-5.675l-0.125,-0.231l0.109,-0.239c0.101,-0.215 2.417,-5.079 9.977,-6.346c-1.508,-1.569 -4.511,-5.546 -4.741,-12.51c-0.32,-9.726 6.237,-17.284 15.254,-17.581a17.4,17.4 0 0 1 0.558,-0.009c9.216,0 13.298,7.652 13.791,12.905c0.353,3.772 -0.451,6.984 -2.267,9.043c-1.541,1.749 -3.763,2.682 -6.606,2.777c-0.113,0.003 -0.224,0.005 -0.334,0.005c-5.822,0.001 -6.268,-5.166 -6.272,-5.219l-0.008,-0.095l0.029,-0.092c0.062,-0.209 1.576,-5.002 8.689,-5.115c-0.123,-1.256 -0.634,-4.415 -2.694,-6.273c-1.227,-1.105 -2.819,-1.584 -4.778,-1.428c-5.96,0.488 -7.923,5.509 -7.774,10.045c0.168,5.04 4.784,13.924 13.389,13.615c5.133,-0.168 8.66,-1.553 11.101,-4.358c3.201,-3.678 4.612,-9.824 4.317,-18.79l-0.008,-0.251l9.097,-7.826l-0.242,1.433a175.052,175.052 0 0 0 2.28,69.207l0.334,1.414l-9.589,-7.209l-0.008,-0.251c-0.657,-19.924 -8.851,-22.374 -16.909,-22.082c-8.604,0.283 -12.63,9.427 -12.463,14.467c0.15,4.536 2.439,9.417 8.418,9.511c1.955,0.035 3.523,-0.555 4.678,-1.743c1.937,-1.995 2.234,-5.174 2.273,-6.433c-7.092,0.355 -8.933,-4.326 -9.009,-4.531l-0.033,-0.187c0,-0.054 0.109,-5.435 6.251,-5.637c2.819,-0.098 5.123,0.692 6.772,2.335c1.947,1.936 2.96,5.087 2.858,8.874c-0.148,5.378 -3.859,13.495 -13.471,13.813c-0.184,0.008 -0.365,0.01 -0.545,0.01zm-21.234,-35.287c0.642,0.979 3.512,4.655 10.471,4.977l1.293,0.06l-0.97,0.859c-0.045,0.041 -4.626,4.201 -4.343,12.809c0.302,9.128 6.873,15.828 15.293,15.524c8.885,-0.293 12.316,-7.81 12.453,-12.792c0.055,-2.024 -0.201,-5.768 -2.548,-8.101c-1.438,-1.431 -3.428,-2.117 -5.999,-2.029c-4.772,0.157 -5.193,3.822 -5.23,4.494c0.281,0.638 2.179,4.268 8.469,3.725l0.546,-0.046l0.025,0.546c0.008,0.199 0.187,4.908 -2.573,7.75c-1.362,1.404 -3.209,2.12 -5.447,2.062c-6.717,-0.107 -9.286,-5.508 -9.452,-10.527c-0.176,-5.416 4.175,-15.245 13.481,-15.552c7.942,-0.241 17.225,2.102 17.984,22.847l6.873,5.167a176.09,176.09 0 0 1 -2.199,-66.789l-6.52,5.609c0.269,9.108 -1.231,15.41 -4.583,19.261c-3.475,3.993 -8.432,4.606 -11.86,4.719c-0.146,0.004 -0.291,0.007 -0.437,0.007c-9.023,0 -13.859,-9.307 -14.035,-14.638c-0.166,-5.019 2.043,-10.578 8.738,-11.126c2.257,-0.186 4.12,0.389 5.57,1.698c2.942,2.654 3.073,7.365 3.077,7.564l0.012,0.547l-0.548,-0.01c-6.354,-0.165 -7.966,3.612 -8.206,4.272c0.086,0.67 0.771,4.295 5.517,4.142c2.542,-0.083 4.509,-0.899 5.851,-2.421c2.187,-2.483 2.197,-6.235 2.009,-8.251c-0.464,-4.962 -4.415,-12.249 -13.27,-11.943c-8.416,0.277 -14.536,7.369 -14.236,16.496c0.285,8.61 5.129,12.458 5.178,12.496l1.024,0.792l-1.284,0.146c-6.928,0.78 -9.548,4.636 -10.124,5.656z"/>
  <path id="svg_14" fill="#35adea" d="m99.773,135.351c3.876,-3.549 6.513,-8.954 1.349,-13.951c-4.105,-3.972 -7.67,-0.57 -7.67,-0.57s-2.195,4.591 3.305,9.386c0,0 -6.452,6.832 -11.861,1.062c-4.61,-4.917 -1.958,-10.345 0.987,-13.388c3.88,-4.01 13.532,-7.187 19.807,-1.116c6.275,6.072 9.656,14.033 -4.1,28.25l1.277,10.214c6.174,-9.643 13.386,-18.822 21.655,-27.368s17.206,-16.056 26.64,-22.544l-10.251,-0.94c-13.756,14.217 -21.824,11.1 -28.099,5.028s-3.418,-15.822 0.463,-19.833c2.945,-3.043 8.282,-5.872 13.348,-1.427c5.944,5.216 -0.671,11.89 -0.671,11.89c-4.973,-5.339 -9.489,-2.994 -9.489,-2.994s-3.282,3.675 0.822,7.647c5.164,4.997 10.479,2.184 13.899,-1.807c3.142,-3.668 6.131,-11.973 -0.677,-18.56c-6.623,-6.408 -16.243,-5.211 -22.497,1.253s-5.524,12.834 -5.524,12.834c-6.401,-5.28 -11.869,-3.354 -11.869,-3.354s-1.745,5.529 3.743,11.753c0,0 -6.391,-0.52 -12.645,5.944s-7.134,16.118 -0.511,22.526c6.805,6.586 15.007,3.326 18.569,0.065z"/>
  <path id="svg_15" d="m102.525,156.745l-1.487,-11.905l0.174,-0.181c6.239,-6.447 9.316,-11.95 9.415,-16.824c0.072,-3.718 -1.613,-7.112 -5.303,-10.683c-3.41,-3.298 -7.521,-3.497 -10.361,-3.08c-3.342,0.486 -6.678,2.09 -8.703,4.183c-3.155,3.262 -5.07,8.302 -0.981,12.664c1.334,1.423 2.848,2.146 4.503,2.149l0.01,0c2.776,0 5.262,-1.993 6.194,-2.839c-5.197,-4.859 -3.102,-9.428 -3.008,-9.625l0.111,-0.153c0.039,-0.038 3.986,-3.7 8.397,0.572c2.043,1.977 3.065,4.161 3.032,6.49c-0.037,2.745 -1.596,5.667 -4.39,8.226c-3.97,3.634 -12.381,6.61 -19.293,-0.076c-6.481,-6.272 -6.268,-16.275 0.499,-23.269c4.846,-5.007 9.741,-5.939 11.912,-6.09c-4.752,-6.013 -3.205,-11.173 -3.133,-11.4l0.078,-0.25l0.248,-0.087c0.224,-0.082 5.326,-1.798 11.497,2.756c0.08,-2.176 0.849,-7.099 5.693,-12.105c6.768,-6.994 16.757,-7.537 23.241,-1.265c6.912,6.688 4.212,15.194 0.71,19.28c-2.464,2.876 -5.332,4.531 -8.073,4.659c-2.359,0.12 -4.546,-0.839 -6.59,-2.816c-4.415,-4.273 -0.884,-8.335 -0.847,-8.375l0.15,-0.116c0.193,-0.102 4.692,-2.345 9.716,2.69c0.819,-0.962 2.735,-3.527 2.636,-6.3c-0.059,-1.651 -0.833,-3.139 -2.298,-4.424c-4.495,-3.946 -9.466,-1.867 -12.624,1.397c-2.025,2.094 -3.519,5.48 -3.894,8.836c-0.322,2.858 0.012,6.957 3.42,10.254c3.689,3.57 7.129,5.144 10.851,4.946c4.868,-0.256 10.268,-3.515 16.505,-9.963l0.174,-0.181l11.946,1.095l-1.196,0.824c-9.544,6.564 -18.481,14.127 -26.56,22.477s-15.342,17.53 -21.589,27.285l-0.782,1.224zm-0.384,-11.537l1.067,8.534c6.106,-9.362 13.143,-18.182 20.935,-26.236s16.376,-15.379 25.532,-21.789l-8.563,-0.785c-6.358,6.527 -11.93,9.831 -17.028,10.101c-5.264,0.255 -9.173,-2.858 -11.637,-5.241c-2.899,-2.805 -4.224,-6.755 -3.734,-11.126c0.4,-3.576 2.004,-7.197 4.183,-9.45c3.49,-3.612 9.025,-5.887 14.072,-1.457c1.693,1.485 2.585,3.228 2.653,5.182c0.14,3.959 -3.157,7.33 -3.297,7.472l-0.386,0.389l-0.371,-0.4c-4.306,-4.621 -8.135,-3.212 -8.777,-2.927c-0.421,0.526 -2.554,3.541 0.858,6.844c1.828,1.766 3.736,2.626 5.81,2.521c3.305,-0.154 6.007,-2.756 7.326,-4.293c3.242,-3.784 5.744,-11.658 -0.644,-17.842c-6.052,-5.852 -15.403,-5.321 -21.755,1.24c-6.011,6.214 -5.385,12.348 -5.379,12.409l0.15,1.293l-1.005,-0.828c-5.332,-4.399 -9.983,-3.617 -11.103,-3.337c-0.256,1.147 -0.899,5.761 3.705,10.982l0.856,0.97l-1.29,-0.1c-0.07,0.004 -6.229,-0.409 -12.228,5.787c-6.35,6.563 -6.575,15.929 -0.523,21.784c6.391,6.181 14.177,3.421 17.853,0.055c1.494,-1.367 4.005,-4.156 4.05,-7.465c0.029,-2.028 -0.884,-3.953 -2.712,-5.721c-3.412,-3.3 -6.356,-1.072 -6.867,-0.633c-0.265,0.65 -1.547,4.526 3.211,8.675l0.412,0.359l-0.375,0.398c-0.137,0.145 -3.391,3.541 -7.345,3.541l-0.012,0c-1.955,-0.003 -3.728,-0.838 -5.269,-2.481c-4.594,-4.899 -2.499,-10.502 0.993,-14.112c2.179,-2.253 5.744,-3.974 9.306,-4.493c4.358,-0.628 8.346,0.561 11.243,3.366c2.464,2.384 5.728,6.165 5.621,11.458c-0.103,5.109 -3.221,10.787 -9.536,17.356z"/>
  <path id="svg_16" fill="#35adea" d="m416.144,160.794c1.591,5.009 5.386,9.674 12.091,7.089c5.329,-2.055 3.742,-6.72 3.742,-6.72s-3.243,-3.922 -9.905,-0.947c0,0 -3.486,-8.726 4.022,-11.209c6.399,-2.116 10.209,2.572 11.733,6.523c2.008,5.207 0.833,15.299 -7.314,18.44s-16.792,2.862 -23.909,-15.596l-9.805,-3.135c6.154,9.656 11.451,20.058 15.729,31.154s7.335,22.361 9.256,33.649l5.162,-8.906c-7.117,-18.458 -0.897,-24.468 7.25,-27.61s15.793,3.55 17.801,8.757c1.523,3.951 1.847,9.983 -4.317,12.711c-7.232,3.201 -10.506,-5.607 -10.506,-5.607c6.935,-2.268 6.706,-7.352 6.706,-7.352s-1.955,-4.523 -7.284,-2.469c-6.705,2.585 -6.387,8.591 -4.203,13.371c2.007,4.393 8.287,10.596 17.125,7.188c8.599,-3.315 11.557,-12.547 8.321,-20.939s-9.322,-10.408 -9.322,-10.408c7.482,-3.588 8.033,-9.36 8.033,-9.36s-4.283,-3.907 -12.237,-1.544c0,0 3.158,-5.58 -0.078,-13.972s-11.626,-13.249 -20.224,-9.934c-8.838,3.409 -9.329,12.222 -7.867,16.826z"/>
  <path id="svg_17" d="m421.51,221.561l-0.242,-1.432a175.276,175.276 0 0 0 -9.23,-33.548a174.968,174.968 0 0 0 -15.682,-31.061l-0.782,-1.225l11.429,3.655l0.09,0.235c7.172,18.606 15.767,18.172 23.23,15.295c4.425,-1.706 6.331,-5.349 7.15,-8.105c0.964,-3.238 0.911,-6.939 -0.137,-9.657c-1.631,-4.236 -5.406,-8.09 -11.079,-6.213c-1.849,0.611 -3.141,1.681 -3.839,3.178c-1.173,2.515 -0.41,5.623 -0.033,6.828c6.598,-2.671 9.858,1.15 9.995,1.317l0.092,0.165c0.018,0.051 1.684,5.169 -4.05,7.38c-2.655,1.023 -5.067,1.028 -7.164,0.022c-2.476,-1.189 -4.468,-3.831 -5.615,-7.441c-1.629,-5.128 -0.796,-14.013 8.178,-17.473c4.21,-1.619 8.664,-1.409 12.554,0.6c3.732,1.93 6.698,5.351 8.35,9.634c2.505,6.501 1.295,11.333 0.517,13.368c7.46,-1.788 11.485,1.788 11.663,1.949l0.193,0.176l-0.025,0.262c-0.023,0.236 -0.611,5.591 -7.334,9.272c1.941,0.987 6.083,3.755 8.59,10.256c3.5,9.079 -0.207,18.373 -8.623,21.619c-8.974,3.458 -15.557,-2.568 -17.791,-7.46c-1.574,-3.446 -1.871,-6.743 -0.835,-9.286c0.88,-2.158 2.671,-3.771 5.326,-4.795c5.732,-2.206 7.934,2.701 7.956,2.751l0.043,0.185c0.01,0.217 0.156,5.241 -6.526,7.686c0.529,1.146 2.05,3.963 4.608,5.039c1.518,0.641 3.198,0.564 4.979,-0.223c5.47,-2.422 5.673,-7.808 4.04,-12.043c-1.046,-2.718 -3.492,-5.496 -6.378,-7.249c-2.458,-1.492 -6.321,-2.914 -10.742,-1.206c-4.793,1.847 -7.667,4.315 -9.05,7.765c-1.814,4.526 -1.126,10.794 2.101,19.165l0.09,0.235l-6.017,10.38zm-23.497,-65.383a176.092,176.092 0 0 1 24.04,62.351l4.312,-7.44c-3.25,-8.513 -3.904,-14.958 -2.006,-19.697c1.97,-4.915 6.45,-7.123 9.649,-8.356c3.763,-1.454 7.905,-0.994 11.663,1.289c3.077,1.868 5.689,4.845 6.815,7.769c1.807,4.685 1.549,10.66 -4.594,13.381c-2.06,0.913 -4.017,0.99 -5.818,0.228c-3.65,-1.539 -5.324,-5.946 -5.394,-6.133l-0.191,-0.512l0.519,-0.17c5.97,-1.951 6.327,-6.059 6.346,-6.733c-0.304,-0.608 -2.142,-3.804 -6.571,-2.097c-2.372,0.915 -3.964,2.332 -4.731,4.211c-1.249,3.065 -0.023,6.61 0.819,8.452c2.07,4.533 8.161,10.117 16.458,6.916c7.858,-3.029 11.304,-11.739 8.02,-20.261c-3.098,-8.037 -8.939,-10.078 -8.998,-10.098l-1.227,-0.412l1.165,-0.56c6.231,-2.987 7.478,-7.531 7.696,-8.67c-0.933,-0.716 -4.854,-3.237 -11.522,-1.256l-1.241,0.368l0.634,-1.129c0.031,-0.054 2.987,-5.489 -0.111,-13.526c-1.559,-4.044 -4.347,-7.268 -7.851,-9.079c-3.619,-1.868 -7.769,-2.064 -11.694,-0.552c-8.297,3.198 -9.064,11.425 -7.554,16.175c0.611,1.93 2.084,5.379 5.067,6.812c1.828,0.875 3.958,0.858 6.333,-0.055c4.456,-1.718 3.65,-5.318 3.463,-5.965c-0.476,-0.511 -3.453,-3.305 -9.224,-0.732l-0.499,0.224l-0.203,-0.508c-0.074,-0.186 -1.791,-4.575 -0.119,-8.166c0.825,-1.773 2.327,-3.029 4.464,-3.736c6.37,-2.108 10.58,2.145 12.388,6.833c1.128,2.925 1.19,6.884 0.164,10.334c-1.254,4.215 -4.017,7.334 -7.78,8.786c-7.449,2.874 -16.963,3.679 -24.496,-15.663l-8.191,-2.623z"/>
  <path id="svg_18" fill="#35adea" d="m368.483,102.89c3.419,3.991 8.735,6.804 13.899,1.807c4.105,-3.972 0.822,-7.647 0.822,-7.647s-4.516,-2.345 -9.49,2.994c0,0 -6.615,-6.674 -0.671,-11.89c5.066,-4.445 10.403,-1.616 13.348,1.427c3.88,4.01 6.738,13.761 0.463,19.833s-14.343,9.189 -28.099,-5.028l-10.251,0.94c9.434,6.488 18.371,13.998 26.64,22.544s15.481,17.725 21.655,27.368l1.277,-10.214c-13.756,-14.217 -10.375,-22.178 -4.1,-28.25s15.926,-2.895 19.807,1.116c2.945,3.043 5.596,8.471 0.987,13.388c-5.409,5.769 -11.861,-1.062 -11.861,-1.062c5.5,-4.795 3.305,-9.386 3.305,-9.386s-3.565,-3.402 -7.67,0.57c-5.164,4.997 -2.527,10.402 1.349,13.951c3.562,3.262 11.765,6.522 18.573,-0.066c6.623,-6.408 5.743,-16.063 -0.511,-22.526c-6.254,-6.464 -12.645,-5.944 -12.645,-5.944c5.488,-6.224 3.743,-11.753 3.743,-11.753s-5.468,-1.926 -11.869,3.354c0,0 0.73,-6.37 -5.524,-12.834s-15.874,-7.661 -22.497,-1.253c-6.811,6.588 -3.823,14.893 -0.68,18.561z"/>
  <path id="svg_19" d="m397.139,156.745l-0.784,-1.224a175.042,175.042 0 0 0 -48.149,-49.762l-1.198,-0.824l11.951,-1.095l0.174,0.181c13.861,14.325 21.607,10.577 27.356,5.016c3.408,-3.298 3.74,-7.396 3.42,-10.254c-0.378,-3.357 -1.869,-6.743 -3.896,-8.836c-3.153,-3.26 -8.126,-5.341 -12.624,-1.397c-1.467,1.286 -2.238,2.777 -2.296,4.429c-0.096,2.779 1.818,5.335 2.632,6.294c5.033,-5.036 9.53,-2.788 9.72,-2.689l0.15,0.116c0.037,0.04 3.568,4.101 -0.849,8.375c-2.047,1.979 -4.315,2.898 -6.588,2.817c-2.743,-0.128 -5.611,-1.784 -8.075,-4.66c-3.5,-4.087 -6.198,-12.594 0.71,-19.28c6.487,-6.27 16.476,-5.727 23.241,1.265c4.846,5.007 5.615,9.93 5.695,12.105c6.167,-4.551 11.272,-2.836 11.495,-2.756l0.248,0.087l0.078,0.25c0.072,0.227 1.621,5.386 -3.131,11.4c2.171,0.151 7.066,1.083 11.91,6.09c3.192,3.299 5.051,7.428 5.232,11.626c0.189,4.372 -1.492,8.507 -4.733,11.643c-6.908,6.683 -15.323,3.708 -19.293,0.076c-2.792,-2.558 -4.351,-5.48 -4.39,-8.225c-0.031,-2.33 0.989,-4.514 3.032,-6.491c4.419,-4.275 8.358,-0.612 8.399,-0.572l0.111,0.153c0.094,0.197 2.189,4.766 -3.008,9.624c0.931,0.847 3.424,2.84 6.192,2.84l0.016,0c1.652,-0.004 3.166,-0.727 4.497,-2.149c4.091,-4.364 2.177,-9.402 -0.981,-12.664c-3.504,-3.623 -12.874,-7.095 -19.063,-1.103c-5.747,5.562 -9.751,13.178 4.113,27.507l0.174,0.181l-1.488,11.906zm-47.15,-51.028a176.21,176.21 0 0 1 46.467,48.025l1.069,-8.534c-14.38,-14.965 -9.653,-23.257 -3.914,-28.811c6.692,-6.477 16.778,-2.768 20.549,1.127c3.494,3.609 5.589,9.211 0.993,14.112c-1.541,1.643 -3.313,2.478 -5.269,2.481l-0.012,0c-3.956,0 -7.207,-3.396 -7.345,-3.541l-0.375,-0.398l0.412,-0.359c4.76,-4.149 3.477,-8.025 3.213,-8.675c-0.509,-0.439 -3.457,-2.666 -6.869,0.633c-1.828,1.768 -2.739,3.694 -2.712,5.722c0.045,3.309 2.556,6.097 4.05,7.464c3.676,3.367 11.462,6.13 17.853,-0.055c3.022,-2.925 4.589,-6.774 4.415,-10.843c-0.17,-3.941 -1.924,-7.827 -4.938,-10.941c-5.997,-6.195 -12.154,-5.783 -12.225,-5.787l-1.29,0.1l0.856,-0.97c4.608,-5.225 3.96,-9.843 3.703,-10.985c-1.135,-0.293 -5.724,-1.096 -11.101,3.34l-0.999,0.824l0.144,-1.287c0.006,-0.062 0.609,-6.219 -5.381,-12.41c-6.352,-6.564 -15.703,-7.096 -21.755,-1.24c-6.387,6.181 -3.884,14.057 -0.644,17.842c1.319,1.538 4.021,4.139 7.328,4.294c2.015,0.084 3.982,-0.756 5.808,-2.522c3.414,-3.303 1.28,-6.318 0.86,-6.844c-0.646,-0.285 -4.472,-1.695 -8.779,2.926l-0.371,0.4l-0.386,-0.389c-0.139,-0.142 -3.434,-3.512 -3.297,-7.471c0.068,-1.954 0.96,-3.697 2.653,-5.182c5.049,-4.429 10.582,-2.152 14.072,1.457c2.179,2.252 3.783,5.873 4.185,9.45c0.49,4.37 -0.837,8.321 -3.734,11.126c-5.738,5.551 -14.181,10.008 -28.665,-4.86l-8.569,0.781z"/>
  <path id="svg_20" fill="#35adea" d="m437.427,232.706c-0.49,5.233 1.184,11.009 8.366,11.245c5.709,0.188 6.068,-4.727 6.068,-4.727s-1.455,-4.876 -8.75,-4.738c0,0 0.196,-9.395 8.078,-8.75c6.717,0.55 8.396,6.353 8.256,10.585c-0.184,5.577 -5.204,14.411 -13.931,14.123s-16.577,-3.918 -15.926,-23.69l-7.804,-6.713c1.897,11.292 2.715,22.936 2.323,34.822s-1.974,23.451 -4.61,34.593l8.228,-6.185c0.651,-19.772 8.724,-22.878 17.451,-22.59s13.155,9.433 12.971,15.01c-0.139,4.232 -2.196,9.912 -8.935,10.018c-7.907,0.125 -7.484,-9.263 -7.484,-9.263c7.27,0.619 9.043,-4.152 9.043,-4.152s-0.035,-4.928 -5.743,-5.116c-7.182,-0.237 -9.233,5.417 -9.088,10.67c0.133,4.828 3.494,12.99 12.962,13.302c9.211,0.303 15.537,-7.042 15.833,-16.031s-4.521,-13.221 -4.521,-13.221c8.289,-0.384 11.049,-5.482 11.049,-5.482s-2.418,-5.269 -10.664,-6.197c0,0 5.085,-3.905 5.382,-12.894c0.296,-8.989 -5.533,-16.735 -14.744,-17.039c-9.468,-0.312 -13.359,7.611 -13.81,12.42z"/>
  <path id="svg_21" d="m449.428,291.685c-0.181,0 -0.361,-0.002 -0.542,-0.008c-9.616,-0.318 -13.325,-8.435 -13.471,-13.813c-0.105,-3.786 0.909,-6.937 2.856,-8.873c1.652,-1.643 3.927,-2.436 6.772,-2.336c6.145,0.202 6.253,5.582 6.253,5.637l-0.033,0.188c-0.078,0.205 -1.894,4.889 -9.009,4.53c0.041,1.262 0.341,4.448 2.277,6.437c1.151,1.184 2.694,1.772 4.672,1.739c5.978,-0.094 8.268,-4.975 8.418,-9.511c0.096,-2.911 -1.071,-6.423 -3.045,-9.165c-1.68,-2.333 -4.68,-5.146 -9.417,-5.302c-5.184,-0.184 -8.746,0.982 -11.366,3.618c-3.434,3.459 -5.248,9.498 -5.543,18.464l-0.008,0.251l-9.591,7.209l0.334,-1.414a175.133,175.133 0 0 0 2.282,-69.207l-0.242,-1.433l9.095,7.826l-0.008,0.251c-0.656,19.928 7.427,22.885 15.418,23.147c4.788,0.177 7.919,-2.453 9.747,-4.671c2.152,-2.605 3.547,-6.032 3.642,-8.944c0.15,-4.536 -1.814,-9.556 -7.774,-10.045c-1.951,-0.157 -3.549,0.323 -4.776,1.428c-2.062,1.858 -2.571,5.017 -2.694,6.273c7.111,0.112 8.627,4.905 8.689,5.114l0.029,0.093l-0.008,0.095c-0.004,0.053 -0.449,5.219 -6.274,5.219c-0.111,0 -0.222,-0.002 -0.334,-0.005c-2.844,-0.094 -5.065,-1.028 -6.604,-2.776c-1.816,-2.061 -2.62,-5.273 -2.267,-9.044c0.49,-5.251 4.571,-12.905 13.791,-12.905c0.185,0 0.369,0.003 0.558,0.009c9.015,0.297 15.572,7.856 15.252,17.581c-0.23,6.963 -3.231,10.94 -4.739,12.51c7.558,1.267 9.874,6.13 9.975,6.346l0.109,0.239l-0.125,0.231c-0.113,0.208 -2.743,4.909 -10.373,5.675c1.403,1.666 4.136,5.832 3.908,12.795c-0.316,9.529 -7.08,16.547 -15.834,16.547zm-4.829,-23.987c-2.349,0 -4.226,0.684 -5.587,2.037c-2.347,2.333 -2.601,6.076 -2.546,8.1c0.135,4.981 3.564,12.498 12.453,12.792c0.17,0.006 0.336,0.008 0.505,0.008c8.174,0 14.493,-6.588 14.786,-15.533c0.283,-8.609 -4.298,-12.768 -4.343,-12.809l-0.97,-0.858l1.293,-0.061c6.961,-0.322 9.829,-3.999 10.471,-4.977c-0.576,-1.019 -3.196,-4.876 -10.121,-5.656l-1.286,-0.146l1.026,-0.792c0.049,-0.038 4.893,-3.887 5.176,-12.496c0.3,-9.127 -5.82,-16.219 -14.234,-16.496c-8.869,-0.31 -12.808,6.982 -13.27,11.943c-0.189,2.016 -0.178,5.768 2.009,8.252c1.342,1.522 3.309,2.337 5.849,2.42c4.799,0.15 5.435,-3.471 5.519,-4.142c-0.24,-0.649 -1.842,-4.276 -7.911,-4.276c-0.098,0 -0.197,0.001 -0.295,0.003l-0.546,0.01l0.01,-0.547c0.004,-0.199 0.135,-4.911 3.075,-7.564c1.45,-1.309 3.326,-1.882 5.57,-1.698c6.694,0.548 8.904,6.107 8.738,11.126c-0.103,3.133 -1.59,6.802 -3.882,9.578c-2.8,3.392 -6.584,5.185 -10.59,5.053c-7.983,-0.263 -17.051,-3.233 -16.444,-23.98l-6.518,-5.609a176.279,176.279 0 0 1 2.097,33.5a176.174,176.174 0 0 1 -4.298,33.289l6.875,-5.167c0.33,-9.106 2.242,-15.296 5.841,-18.919c3.73,-3.758 8.723,-4.048 12.143,-3.928c4.031,0.133 7.667,2.171 10.235,5.739c2.105,2.92 3.346,6.68 3.244,9.813c-0.166,5.019 -2.735,10.42 -9.452,10.527a8.857,8.857 0 0 1 -0.162,0.001c-2.179,0 -3.953,-0.693 -5.283,-2.062c-2.759,-2.841 -2.581,-7.552 -2.573,-7.751l0.025,-0.546l0.546,0.046c6.237,0.53 8.19,-3.111 8.469,-3.725c-0.041,-0.678 -0.488,-4.338 -5.232,-4.494c-0.14,-0.003 -0.277,-0.005 -0.412,-0.005zm-42.682,66.57c-28.072,-18.437 -87.77,-30.35 -152.085,-30.35s-124.013,11.914 -152.083,30.35l-1.153,-1.756c28.827,-18.933 87.544,-30.695 153.236,-30.695s124.409,11.762 153.238,30.695l-1.153,1.756z"/>
  <path id="svg_22" d="m424.202,250.172l0,-2.101l-56.74,0c-0.091,-22.705 -3.121,-44.367 -8.537,-64.228c18.146,-4.854 33.273,-10.973 44.146,-18.113l-1.153,-1.756c-10.54,6.922 -25.538,12.924 -43.564,17.722c-5.749,-20.3 -14.027,-38.625 -24.231,-54.162c10.587,-2.692 20.591,-5.89 29.788,-9.59l-0.784,-1.949c-9.312,3.747 -19.457,6.978 -30.208,9.682c-21.282,-31.466 -50.65,-50.925 -83.085,-50.925c-32.436,0 -61.803,19.459 -83.085,50.925c-10.751,-2.705 -20.896,-5.936 -30.209,-9.682l-0.784,1.949c9.197,3.7 19.201,6.898 29.788,9.59c-10.204,15.537 -18.483,33.862 -24.231,54.163c-18.026,-4.798 -33.024,-10.8 -43.563,-17.722l-1.153,1.756c10.872,7.14 25.999,13.259 44.144,18.113c-5.415,19.861 -8.446,41.522 -8.537,64.228l-56.742,0l0,2.101l56.741,0c0.188,46.885 12.864,89.362 33.343,120.541c-9.262,2.352 -18.073,5.086 -26.269,8.207l0.747,1.963c8.325,-3.17 17.296,-5.937 26.731,-8.307c21.281,31.46 50.645,50.914 83.078,50.914c32.432,0 61.796,-19.454 83.078,-50.914c9.569,2.404 18.661,5.216 27.089,8.443l0.751,-1.961c-8.3,-3.178 -17.235,-5.958 -26.632,-8.344c20.48,-31.179 33.156,-73.657 33.344,-120.542l56.739,0l0,-0.001zm-58.841,-2.101l-57.764,0c-0.038,-19.052 -1.096,-37.363 -3.004,-54.501c19.067,-2.052 36.738,-5.167 52.285,-9.196c5.38,19.696 8.391,41.185 8.483,63.697zm-115.529,112.673c-14.1,0 -28.038,0.799 -41.531,2.313c-9.063,-31.299 -14.051,-70.903 -14.133,-112.885l111.328,0c-0.082,41.982 -5.07,81.586 -14.132,112.885a373.647,373.647 0 0 0 -41.532,-2.313zm40.946,4.36a235.388,235.388 0 0 1 -2.088,6.654c-10.45,31.542 -24.614,49.632 -38.857,49.632c-14.244,0 -28.407,-18.09 -38.858,-49.632a233.098,233.098 0 0 1 -2.088,-6.653a371.55,371.55 0 0 1 40.945,-2.26c13.905,0 27.643,0.781 40.946,2.259zm-96.61,-117.033c0.037,-18.744 1.058,-37.005 2.975,-54.279c16.696,1.72 34.421,2.633 52.688,2.633c18.268,0 35.993,-0.912 52.689,-2.633c1.917,17.274 2.938,35.535 2.975,54.279l-111.327,0zm55.664,-110.572a374.22,374.22 0 0 0 41.534,-2.304c4.846,16.74 8.532,35.843 10.918,56.434c-16.723,1.757 -34.405,2.696 -52.452,2.696s-35.729,-0.939 -52.452,-2.696c2.387,-20.591 6.072,-39.694 10.918,-56.434a374.22,374.22 0 0 0 41.534,2.304zm-40.949,-4.351a236.099,236.099 0 0 1 2.091,-6.664c10.451,-31.542 24.614,-49.632 38.858,-49.632s28.407,18.09 38.857,49.632c0.72,2.172 1.415,4.399 2.091,6.664a372.368,372.368 0 0 1 -40.949,2.25c-13.933,0 -27.666,-0.776 -40.948,-2.25zm147.425,49.074c-15.473,3.991 -33.078,7.108 -51.958,9.178c-2.433,-20.934 -6.152,-40.028 -10.871,-56.448c13.402,-1.583 26.329,-3.874 38.483,-6.86c10.258,15.471 18.579,33.803 24.346,54.13zm-25.609,-55.992c-11.952,2.902 -24.646,5.135 -37.807,6.676c-8.403,-28.341 -19.831,-48.304 -32.752,-55.332c27.362,3.626 52.006,21.514 70.559,48.656zm-91.174,-48.656c-12.922,7.028 -24.35,26.991 -32.752,55.332c-13.161,-1.541 -25.854,-3.774 -37.807,-6.676c18.553,-27.142 43.196,-45.03 70.559,-48.656zm-71.822,50.517c12.154,2.986 25.081,5.278 38.482,6.86c-4.719,16.42 -8.438,35.514 -10.871,56.448c-18.88,-2.07 -36.485,-5.187 -51.958,-9.178c5.767,-20.326 14.089,-38.658 24.347,-54.13zm-24.917,56.283c15.547,4.029 33.219,7.144 52.285,9.196c-1.907,17.138 -2.966,35.449 -3.003,54.501l-57.764,0c0.091,-22.512 3.103,-44.001 8.482,-63.697zm-8.482,65.798l57.764,0c0.085,43.268 5.396,82.772 14.118,113.12c-13.396,1.585 -26.311,3.9 -38.468,6.883c-20.499,-30.905 -33.225,-73.274 -33.414,-120.003zm34.672,121.855c11.955,-2.898 24.644,-5.145 37.797,-6.688c8.403,28.34 19.83,48.302 32.752,55.33c-27.358,-3.626 -51.997,-21.509 -70.549,-48.642zm91.164,48.641c12.922,-7.028 24.349,-26.99 32.751,-55.329c13.154,1.542 25.845,3.787 37.799,6.686c-18.552,27.134 -43.192,45.018 -70.55,48.643zm71.807,-50.494c-12.157,-2.983 -25.072,-5.297 -38.468,-6.882c8.722,-30.348 14.033,-69.853 14.118,-113.12l57.764,0c-0.19,46.729 -12.916,89.098 -33.414,120.002z"/>
  <path id="svg_23" d="m153.922,188.037c-0.613,-0.133 -2.776,-0.631 -2.776,-0.631a311.011,311.011 0 0 1 -5.952,-1.414l-0.443,-0.112c-1.436,-0.36 -2.866,-0.72 -4.263,-1.092l-1.559,-0.416l0,-1.961l0.115,-0.345a218.8,218.8 0 0 1 2.895,-9.624c4.142,-12.652 9.355,-24.615 15.51,-35.599a242.332,242.332 0 0 1 -6.82,-2.059l-4.926,-1.568l4.14,-2.07c0.675,-0.979 1.364,-1.94 2.056,-2.9c0.386,-0.539 0.776,-1.078 1.167,-1.614c0.89,-1.206 1.781,-2.398 2.692,-3.568l0.78,-1.263l2.456,0.705c2.148,0.613 4.329,1.205 6.547,1.778l1.635,0.419a283.8,283.8 0 0 0 7.322,1.734l1.66,0.36a306.81,306.81 0 0 0 17.049,3.2l2.571,0.429l-0.71,2.461a207.87,207.87 0 0 0 -1.851,4.868a221.169,221.169 0 0 0 -1.713,4.851l-0.579,1.689l-1.764,-0.295a315.222,315.222 0 0 1 -9.437,-1.76a288.178,288.178 0 0 1 -7.722,-1.666c-5.203,10.98 -9.62,23.102 -13.136,36.056a248.35,248.35 0 0 0 -2.394,9.591l0,2.373l-2.55,-0.557z"/>
  <path id="svg_24" fill="#fff" d="m157.489,124.261c0.307,0.089 0.618,0.176 0.926,0.265c2.168,0.619 4.367,1.216 6.601,1.792c0.374,0.096 0.748,0.193 1.125,0.288c0.176,0.044 0.35,0.091 0.526,0.135c2.422,0.608 4.881,1.191 7.375,1.747c0.303,0.068 0.601,0.14 0.905,0.206c0.253,0.056 0.518,0.103 0.772,0.158c2.84,0.615 5.719,1.201 8.645,1.747c2.801,0.523 5.636,1.017 8.512,1.473c0.079,0.013 0.161,0.024 0.24,0.036a225.461,225.461 0 0 0 -3.6,9.817l-0.002,0.004a313.052,313.052 0 0 1 -9.376,-1.749a293.586,293.586 0 0 1 -9.303,-2.034c-5.576,11.493 -10.281,24.244 -13.997,37.934a251.269,251.269 0 0 0 -2.462,9.877l-0.007,0.028c-0.933,-0.203 -1.839,-0.418 -2.758,-0.627l-0.055,-0.012a301.077,301.077 0 0 1 -5.855,-1.392l-0.44,-0.111a276.548,276.548 0 0 1 -4.231,-1.084l0.005,-0.017a223.58,223.58 0 0 1 2.901,-9.646c4.455,-13.606 10.087,-26.198 16.669,-37.547a250.361,250.361 0 0 1 -9.336,-2.765l0.003,-0.004a153.684,153.684 0 0 1 2.333,-3.306c0.384,-0.535 0.768,-1.07 1.157,-1.598a176.54,176.54 0 0 1 2.718,-3.601l0.001,-0.001c0.002,-0.006 0.005,-0.009 0.008,-0.013m-1.425,-4.787l-1.761,2.048l-0.124,0.144l-0.062,0.086a174.52,174.52 0 0 0 -3.927,5.272a165.066,165.066 0 0 0 -2.309,3.269l-3.659,4.649l5.771,1.843c1.407,0.448 2.86,0.895 4.35,1.339c-5.67,10.464 -10.504,21.763 -14.401,33.663a225.48,225.48 0 0 0 -2.957,9.828l-1.137,4.089l4.096,1.113c1.407,0.376 2.85,0.739 4.296,1.101l0.16,0.04l0.287,0.072c1.947,0.484 3.926,0.955 5.938,1.412l0.947,0.217c0.63,0.145 1.26,0.29 1.903,0.43l4.104,0.893l0.886,-4.06l0.007,-0.032a251.041,251.041 0 0 1 2.421,-9.713c3.324,-12.243 7.454,-23.726 12.293,-34.184a314.934,314.934 0 0 0 15.625,3.075l3.346,0.568l1.26,-3.153l0.039,-0.098l0.035,-0.102a213.717,213.717 0 0 1 1.698,-4.805a210.206,210.206 0 0 1 1.832,-4.822l1.94,-4.884l-5.192,-0.818l-0.157,-0.024c-2.779,-0.441 -5.606,-0.93 -8.477,-1.466a296.93,296.93 0 0 1 -8.526,-1.723l-0.447,-0.091l-0.313,-0.064l-0.446,-0.102l-0.445,-0.102a282.275,282.275 0 0 1 -7.267,-1.721l-0.258,-0.066l-0.261,-0.067l-1.021,-0.261a259.5,259.5 0 0 1 -6.581,-1.785l-0.313,-0.089l-0.598,-0.171l-2.595,-0.748z"/>
  <path id="svg_25" d="m320.211,191.569l-0.455,-0.456l-0.002,-0.71a332.843,332.843 0 0 0 -1.639,-9.487l-0.115,-0.174l-0.002,-0.434l-0.053,-0.276c-0.568,-2.971 -1.19,-5.97 -1.902,-9.165c-0.181,-0.823 -0.361,-1.641 -0.55,-2.452a348.158,348.158 0 0 0 -0.925,-3.887c-0.195,-0.785 -0.394,-1.56 -0.593,-2.338a265.224,265.224 0 0 0 -3.541,-12.61s-0.529,-1.713 -0.743,-2.377a210.138,210.138 0 0 0 -1.11,-3.386l-0.414,-1.205a282.652,282.652 0 0 0 -1.719,-4.866l-0.336,-0.882c-0.363,-0.973 -0.728,-1.944 -1.1,-2.898l-1.399,-3.507l2.759,-0.45c2.882,-0.463 5.726,-0.961 8.537,-1.486a294.007,294.007 0 0 0 18.099,-3.958c2.96,-0.751 5.849,-1.533 8.582,-2.324l0.794,-0.23l1.892,0.955l0.002,0.575c0.78,1.015 1.551,2.043 2.316,3.079c0.396,0.541 0.786,1.082 1.171,1.624c0.794,1.101 1.588,2.21 2.363,3.346c7.669,11.268 14.228,23.851 19.498,37.402a203.075,203.075 0 0 1 3.41,9.43l0.669,2.004l-2.006,0.657a209.494,209.494 0 0 1 -5.115,1.598l-0.48,0.146c-1.699,0.506 -3.438,1 -5.205,1.485l-1.721,0.476c-1.416,0.377 -2.866,0.743 -4.321,1.108l-0.341,0.084c-6.518,1.622 -13.452,3.103 -20.612,4.403a386.255,386.255 0 0 1 -11.733,1.947l-1.315,0.198l-0.645,-0.959zm2.203,-49.842c4.187,10.567 7.745,22.026 10.597,34.128c6.971,-1.262 13.682,-2.686 20.009,-4.247c-4.054,-11.95 -9.085,-23.24 -14.975,-33.612a285.734,285.734 0 0 1 -15.631,3.731z"/>
  <path id="svg_26" fill="#fff" d="m342.174,124.258l0.003,0.003a173.65,173.65 0 0 1 2.724,3.608c0.388,0.528 0.771,1.061 1.155,1.595a156.605,156.605 0 0 1 2.336,3.31l0.002,0.003c7.572,11.126 14.055,23.552 19.275,36.976l0.001,0.002a203.095,203.095 0 0 1 3.374,9.332l0,0.002a229.016,229.016 0 0 1 -5.064,1.58c-0.158,0.047 -0.312,0.096 -0.47,0.143c-1.689,0.503 -3.415,0.993 -5.167,1.474l-0.514,0.142c-0.4,0.109 -0.788,0.222 -1.191,0.33a284.41,284.41 0 0 1 -4.291,1.1l-0.336,0.084c-6.47,1.61 -13.31,3.073 -20.48,4.375a383.409,383.409 0 0 1 -11.672,1.936l-0.002,-0.01l-0.001,-0.007a331.433,331.433 0 0 0 -1.755,-10.128l-0.002,-0.01c-0.029,-0.153 -0.061,-0.301 -0.09,-0.454a307.935,307.935 0 0 0 -1.914,-9.234c-0.184,-0.826 -0.366,-1.653 -0.555,-2.471a291.588,291.588 0 0 0 -0.933,-3.912c-0.201,-0.816 -0.407,-1.624 -0.613,-2.432a265.387,265.387 0 0 0 -3.552,-12.634c-0.248,-0.803 -0.495,-1.606 -0.748,-2.399c-0.368,-1.15 -0.741,-2.289 -1.12,-3.417c-0.138,-0.411 -0.281,-0.813 -0.421,-1.22a258.959,258.959 0 0 0 -1.731,-4.898c-0.112,-0.303 -0.228,-0.597 -0.341,-0.899c-0.367,-0.982 -0.735,-1.962 -1.111,-2.925c-0.066,-0.171 -0.13,-0.347 -0.196,-0.516c-0.077,-0.196 -0.158,-0.383 -0.235,-0.577l0.015,-0.002l-0.002,-0.004l0.001,0c2.956,-0.468 5.866,-0.978 8.744,-1.516a294.657,294.657 0 0 0 18.229,-3.987a268.49,268.49 0 0 0 8.648,-2.343m-10.761,54.016c8.584,-1.506 16.717,-3.239 24.317,-5.179c-4.456,-13.608 -10.088,-26.202 -16.671,-37.552a283.736,283.736 0 0 1 -19.536,4.633c4.753,11.582 8.76,24.37 11.89,38.098m11.977,-58.743l-2.384,0.691a261.98,261.98 0 0 1 -8.515,2.305a291.599,291.599 0 0 1 -17.969,3.93a315.69,315.69 0 0 1 -8.63,1.496l-0.176,0.028l-5.056,0.707l1.687,4.258l0,0.034l0.148,0.34l0.135,0.342l0.133,0.326l0.097,0.237l0.083,0.217l0.107,0.281c0.372,0.953 0.733,1.913 1.092,2.875l0.165,0.433l0.17,0.449a259.34,259.34 0 0 1 1.698,4.807l0.161,0.464l0.254,0.737a202.232,202.232 0 0 1 1.785,5.549l0.051,0.164a261.57,261.57 0 0 1 3.495,12.434l0.045,0.175c0.188,0.737 0.377,1.475 0.56,2.22c0.314,1.277 0.621,2.56 0.92,3.855c0.157,0.678 0.308,1.359 0.46,2.04l0.088,0.397a304.078,304.078 0 0 1 1.888,9.109l0.052,0.262l0.025,0.127l0.031,0.206l0.023,0.075l0.002,0.01l0.001,0.003a331.87,331.87 0 0 1 1.676,9.683l0.013,0.118l0.018,0.083l0.611,4.021l4.149,-0.612a394.39,394.39 0 0 0 11.799,-1.957c7.21,-1.309 14.189,-2.8 20.745,-4.431l0.202,-0.051l0.138,-0.035a290.15,290.15 0 0 0 4.357,-1.116l0.716,-0.198l0.493,-0.137l0.304,-0.084l0.22,-0.061a248.1,248.1 0 0 0 5.253,-1.499l0.29,-0.088l0.19,-0.058a234.303,234.303 0 0 0 5.159,-1.609l4.021,-1.311l-1.338,-4.013a207.999,207.999 0 0 0 -3.445,-9.527c-5.325,-13.695 -11.959,-26.419 -19.717,-37.819a167.352,167.352 0 0 0 -2.401,-3.403c-0.389,-0.543 -0.782,-1.089 -1.181,-1.631a183.841,183.841 0 0 0 -2.487,-3.305l-0.112,-0.246l-0.541,-0.542l-1.758,-1.755zm-18.123,23.733a287.777,287.777 0 0 0 11.744,-2.818c5.132,9.233 9.582,19.183 13.269,29.665a327.65,327.65 0 0 1 -15.691,3.318c-2.583,-10.62 -5.708,-20.732 -9.322,-30.165z"/>
  <path id="svg_27" fill="none" d="m249.833,153.463c4.949,0 9.835,-0.116 14.676,-0.301c-0.148,-2.223 -0.296,-4.45 -0.454,-6.6c-4.693,0.18 -9.424,0.297 -14.222,0.297c-4.799,0 -9.532,-0.118 -14.226,-0.297c-0.86,11.693 -1.575,24.486 -2.122,38.127c0.269,0.008 0.531,0.025 0.801,0.033c0.789,0.023 1.582,0.043 2.374,0.062c4.352,0.108 8.735,0.181 13.174,0.181c4.441,0 8.823,-0.074 13.176,-0.181c0.79,-0.019 1.58,-0.039 2.367,-0.062c0.27,-0.008 0.532,-0.024 0.802,-0.033c-0.107,-2.662 -0.226,-5.263 -0.345,-7.859c-5.272,0.158 -10.6,0.254 -16,0.254l0,-23.621l-0.001,0z"/>
  <path id="svg_28" d="m249.833,197.476c-4.372,0 -8.935,-0.065 -13.949,-0.197l-2.848,-0.069a510.622,510.622 0 0 1 -12.336,-0.543l-2.086,-0.115l-0.146,-2.107l0.016,-0.25c0.195,-3.357 0.408,-6.666 0.64,-9.928l0.016,-0.23c0.962,-13.595 2.228,-26.473 3.763,-38.277c0.201,-1.564 0.39,-2.955 0.585,-4.338l0.191,-1.366c0.209,-1.498 0.429,-2.991 0.652,-4.463l0.275,-1.828l1.875,-0.148l0.232,0.01c3.221,0.198 6.499,0.34 9.794,0.458l2.341,0.087c3.966,0.118 7.558,0.175 10.984,0.175c3.447,0 7.047,-0.057 11.007,-0.176l2.312,-0.087c3.338,-0.119 6.664,-0.263 9.946,-0.466l1.92,-0.119l0.287,1.902c0.246,1.636 0.488,3.296 0.728,4.983l0.035,0.256c0.246,1.754 0.472,3.422 0.691,5.12c0.271,2.106 0.527,4.283 0.784,6.457l0.258,2.193l-2.187,0.283c-3.348,0.227 -6.955,0.411 -11.027,0.567l-2.041,0.077s-0.339,-5.111 -0.443,-6.604c-4.421,0.151 -8.453,0.225 -12.271,0.225c-3.795,0 -7.829,-0.074 -12.277,-0.226c-0.755,10.579 -1.389,21.971 -1.887,33.922l1.026,0.027c5.004,0.124 9.173,0.182 13.138,0.182c3.966,0 8.137,-0.057 13.126,-0.181l1.032,-0.028c-0.082,-1.927 -0.355,-7.863 -0.355,-7.863l2.136,-0.064c4.017,-0.12 8.007,-0.271 11.938,-0.479l2.039,-0.108l0.166,2.034c0.211,2.596 0.421,5.199 0.607,7.862c0.244,3.413 0.468,6.879 0.671,10.395l0.117,2.005l-2.066,0.212l-0.238,0.012c-4.501,0.248 -8.539,0.426 -12.381,0.546l-2.856,0.069c-5.002,0.136 -9.563,0.201 -13.934,0.201z"/>
  <path id="svg_29" fill="#fff" d="m273.226,135.716l0.001,0.001a481.595,481.595 0 0 1 0.775,5.323c0.23,1.641 0.456,3.302 0.676,4.993l-0.003,0c0.277,2.139 0.538,4.355 0.798,6.567c-3.615,0.244 -7.278,0.422 -10.964,0.563c-0.148,-2.223 -0.296,-4.45 -0.454,-6.6c-4.693,0.18 -9.424,0.297 -14.222,0.297c-4.799,0 -9.532,-0.118 -14.226,-0.297c-0.86,11.693 -1.575,24.486 -2.122,38.127c0.269,0.008 0.531,0.025 0.801,0.033c0.789,0.023 1.582,0.043 2.374,0.062c4.352,0.108 8.735,0.181 13.174,0.181c4.441,0 8.823,-0.074 13.176,-0.181c0.79,-0.019 1.58,-0.039 2.367,-0.062c0.27,-0.008 0.532,-0.024 0.802,-0.033c-0.107,-2.662 -0.226,-5.263 -0.345,-7.859c4.034,-0.121 8.04,-0.272 11.987,-0.482c0.211,2.589 0.42,5.183 0.608,7.839c0.242,3.405 0.465,6.861 0.669,10.369l-0.001,0l0,0.004c-0.079,0.005 -0.163,0.006 -0.243,0.01c-4.055,0.223 -8.147,0.411 -12.295,0.541c-0.457,0.014 -0.922,0.02 -1.381,0.033c-0.485,0.014 -0.975,0.023 -1.461,0.036c-4.581,0.121 -9.204,0.196 -13.884,0.196c-4.683,0 -9.309,-0.075 -13.893,-0.196c-0.482,-0.012 -0.967,-0.021 -1.448,-0.035c-0.461,-0.013 -0.928,-0.019 -1.388,-0.034c-4.146,-0.13 -8.235,-0.318 -12.288,-0.541c-0.082,-0.004 -0.167,-0.006 -0.248,-0.011l-0.002,0l0.001,-0.004c0.005,-0.081 0.011,-0.158 0.015,-0.238c0.196,-3.347 0.409,-6.648 0.639,-9.902l0.014,-0.229l0.001,0c0.969,-13.657 2.232,-26.462 3.749,-38.154l-0.002,0l0.019,-0.144c0.184,-1.413 0.374,-2.797 0.565,-4.174l0.188,-1.353c0.213,-1.503 0.43,-2.99 0.651,-4.454l0.028,-0.19l0.002,0l0,-0.001l0.128,0.007c3.258,0.2 6.556,0.343 9.868,0.462c0.182,0.007 0.36,0.019 0.542,0.025c0.603,0.021 1.205,0.043 1.81,0.061c3.654,0.109 7.333,0.177 11.049,0.177c3.724,0 7.41,-0.068 11.07,-0.177c0.583,-0.017 1.163,-0.039 1.744,-0.059c0.195,-0.007 0.387,-0.02 0.582,-0.027a399.66,399.66 0 0 0 9.997,-0.47m3.58,-4.431l-3.839,0.236c-2.848,0.176 -5.991,0.323 -9.89,0.464l-0.354,0.016l-0.222,0.011l-0.501,0.018l-1.223,0.041c-3.95,0.118 -7.53,0.176 -10.945,0.176c-3.397,0 -6.97,-0.057 -10.924,-0.175l-1.284,-0.043l-0.506,-0.018l-0.2,-0.01l-0.336,-0.016a385.715,385.715 0 0 1 -9.762,-0.457l-3.769,-0.231l-0.759,3.716l-0.032,0.207a472.63,472.63 0 0 0 -0.665,4.551l-0.142,1.017l-0.048,0.348a510.71,510.71 0 0 0 -0.57,4.208l-0.016,0.116c-1.539,11.872 -2.808,24.791 -3.776,38.427l-0.013,0.184c-0.224,3.174 -0.43,6.35 -0.62,9.566l-0.403,5.019l4.322,0.096l0.211,0.009c4.501,0.247 8.553,0.425 12.429,0.547l0.787,0.02l0.612,0.015l0.868,0.021l0.593,0.014c5.017,0.133 9.598,0.197 14.002,0.197c4.402,0 8.98,-0.064 13.995,-0.197l0.601,-0.014l0.868,-0.021l0.61,-0.015l0.782,-0.019c3.877,-0.121 7.931,-0.3 12.395,-0.545l0.247,-0.011l3.966,-0.223l0,-4.094l-0.007,-0.125c-0.204,-3.526 -0.428,-7 -0.671,-10.423c-0.189,-2.67 -0.4,-5.279 -0.611,-7.882l-0.331,-4.071l-4.079,0.216c-3.555,0.189 -7.445,0.345 -11.89,0.478l-4.267,0.128l0.196,4.265l0.163,3.587c-4.493,0.105 -8.318,0.154 -11.966,0.154c-3.651,0 -7.481,-0.049 -11.973,-0.154a1158.311,1158.311 0 0 1 1.65,-29.711c3.679,0.109 7.084,0.162 10.323,0.162c3.237,0 6.639,-0.053 10.314,-0.162l0.151,2.256l0.019,0.287l0.272,4.075l4.081,-0.156c4.121,-0.158 7.747,-0.344 11.087,-0.569l4.406,-0.298l-0.516,-4.386l-0.028,-0.237c-0.253,-2.15 -0.506,-4.3 -0.776,-6.379a437.15,437.15 0 0 0 -0.679,-5.037l-0.025,-0.183l-0.023,-0.165a499.828,499.828 0 0 0 -0.733,-5.02l-0.576,-3.801z"/>
  <path id="svg_30" d="m111.429,377.327l-5.759,4.681l-0.46,-0.564c1.057,-1.415 1.709,-2.562 1.957,-3.443c0.25,-0.879 0.258,-1.816 0.025,-2.808c-0.135,-0.55 -0.605,-1.322 -1.414,-2.316l-1.288,-1.585l-16.413,13.341c-1.087,0.884 -1.719,1.497 -1.894,1.838s-0.22,0.77 -0.14,1.286s0.367,1.078 0.862,1.684l0.572,0.707l-0.581,0.472l-9.054,-11.141l0.581,-0.472l0.572,0.706c0.503,0.618 1.016,1.025 1.543,1.223c0.367,0.154 0.792,0.164 1.276,0.032c0.345,-0.089 1.05,-0.567 2.117,-1.434l16.413,-13.341l-1.249,-1.538c-1.165,-1.434 -2.314,-2.228 -3.449,-2.383c-1.588,-0.222 -3.262,0.185 -5.028,1.22l-0.484,-0.596l5.759,-4.681l15.536,19.112zm9.322,11.014l-7.482,8.282l0.404,0.366c1.29,1.165 2.591,1.605 3.904,1.319c1.311,-0.286 2.761,-1.147 4.349,-2.583l0.57,0.516l-9.624,10.652l-0.57,-0.515c0.927,-1.269 1.535,-2.447 1.818,-3.535s0.285,-1.99 0.006,-2.706s-0.905,-1.513 -1.875,-2.389l-5.178,5.731c-1.011,1.121 -1.584,1.848 -1.715,2.185c-0.129,0.335 -0.137,0.701 -0.023,1.097c0.115,0.395 0.464,0.854 1.044,1.379l1.215,1.098c1.9,1.717 3.82,2.653 5.761,2.808c1.941,0.154 3.974,-0.443 6.101,-1.791l0.556,0.502l-6.758,5.64l-17.584,-15.889l0.501,-0.555l0.675,0.609c0.591,0.533 1.161,0.858 1.711,0.973c0.386,0.094 0.802,0.035 1.251,-0.178c0.326,-0.141 0.95,-0.721 1.873,-1.742l12.09,-13.383c0.833,-0.92 1.317,-1.508 1.457,-1.763c0.217,-0.441 0.277,-0.878 0.178,-1.312c-0.127,-0.624 -0.521,-1.233 -1.182,-1.83l-0.675,-0.609l0.501,-0.556l17.03,15.386l-5.437,6.016l-0.57,-0.515c1.04,-1.733 1.586,-3.155 1.639,-4.27c0.053,-1.114 -0.265,-2.256 -0.954,-3.423c-0.398,-0.686 -1.366,-1.725 -2.907,-3.117l-2.1,-1.898zm21.669,57.639l-0.63,-0.403c2.013,-5.049 0.907,-8.924 -3.317,-11.626l-3.8,-2.429l0.404,-0.63l0.749,0.479c0.659,0.421 1.274,0.646 1.846,0.677c0.404,0.018 0.812,-0.106 1.223,-0.371c0.306,-0.203 0.825,-0.879 1.559,-2.026l4.575,-7.155l-8.159,-5.218l-4.575,7.155c-0.589,0.919 -0.925,1.497 -1.011,1.729c-0.267,0.645 -0.242,1.269 0.076,1.872c0.24,0.474 0.679,0.914 1.315,1.321l0.765,0.49l-0.402,0.63l-12.078,-7.723l0.404,-0.631l0.765,0.49c1.192,0.763 2.21,0.862 3.051,0.295c0.314,-0.215 0.835,-0.89 1.561,-2.027l9.718,-15.194c0.595,-0.931 0.938,-1.505 1.026,-1.719c0.265,-0.664 0.248,-1.289 -0.047,-1.878c-0.236,-0.455 -0.683,-0.895 -1.342,-1.315l-0.767,-0.49l0.404,-0.631l12.078,7.724l-0.404,0.631l-0.767,-0.49c-1.192,-0.763 -2.214,-0.865 -3.067,-0.307c-0.308,0.204 -0.827,0.88 -1.561,2.027l-4.183,6.542l8.161,5.218l4.183,-6.542c0.601,-0.943 0.944,-1.516 1.026,-1.719c0.265,-0.663 0.244,-1.293 -0.064,-1.89c-0.236,-0.454 -0.685,-0.893 -1.342,-1.315l-0.751,-0.479l0.404,-0.63l12.059,7.713l-0.402,0.63l-0.749,-0.479c-0.661,-0.422 -1.276,-0.647 -1.848,-0.677c-0.404,-0.018 -0.81,0.105 -1.221,0.37c-0.308,0.204 -0.827,0.88 -1.561,2.027l-9.716,15.195c-0.603,0.943 -0.946,1.516 -1.028,1.719c-0.269,0.644 -0.244,1.269 0.076,1.872c0.25,0.481 0.695,0.925 1.331,1.331l0.749,0.48l-4.716,7.377zm24.088,1.455l-0.314,0.68l-13.022,-5.996l0.314,-0.679l0.825,0.38c0.724,0.333 1.364,0.472 1.924,0.419c0.396,-0.026 0.775,-0.206 1.139,-0.544c0.271,-0.232 0.693,-0.972 1.268,-2.221l7.544,-16.384c0.587,-1.273 0.886,-2.1 0.899,-2.48c0.01,-0.381 -0.133,-0.785 -0.433,-1.212c-0.302,-0.428 -0.8,-0.802 -1.498,-1.123l-0.827,-0.381l0.312,-0.68l13.024,5.996l-0.314,0.68l-0.825,-0.381c-0.724,-0.332 -1.364,-0.472 -1.924,-0.417c-0.396,0.025 -0.784,0.203 -1.157,0.534c-0.271,0.232 -0.693,0.972 -1.268,2.222l-7.544,16.383c-0.587,1.274 -0.882,2.102 -0.888,2.486c-0.006,0.383 0.142,0.788 0.441,1.216c0.302,0.428 0.8,0.802 1.498,1.123l0.826,0.379zm13.407,-14.862l2.647,-8.005l0.71,0.235c-0.164,0.968 0.037,1.545 0.599,1.732c0.256,0.084 0.747,0.105 1.471,0.061c1.922,-0.103 3.658,0.102 5.207,0.613c2.661,0.88 4.501,2.22 5.519,4.019c1.016,1.798 1.241,3.555 0.673,5.271c-0.267,0.806 -0.718,1.561 -1.356,2.266c-0.638,0.706 -1.5,1.25 -2.585,1.637c-1.087,0.387 -2.665,0.514 -4.737,0.383c2.624,1.379 4.282,2.916 4.969,4.614c0.689,1.697 0.782,3.307 0.277,4.83c-0.435,1.318 -1.233,2.428 -2.39,3.331c-1.157,0.902 -2.571,1.418 -4.239,1.548c-1.668,0.129 -3.623,-0.175 -5.861,-0.916c-2.164,-0.716 -3.779,-1.577 -4.844,-2.582c-1.067,-1.005 -1.877,-2.345 -2.431,-4.019l1.073,-0.54c1.145,2.508 2.696,4.086 4.655,4.733c1.613,0.533 3.055,0.432 4.327,-0.305c1.274,-0.736 2.187,-1.942 2.741,-3.619c0.423,-1.28 0.496,-2.488 0.22,-3.623c-0.279,-1.136 -0.784,-1.991 -1.516,-2.567s-1.912,-1.154 -3.537,-1.735l0.558,-1.688c0.445,0.16 0.812,0.289 1.108,0.387c1.791,0.593 3.225,0.517 4.302,-0.228c1.077,-0.744 1.931,-2.07 2.562,-3.977c0.599,-1.817 0.646,-3.247 0.14,-4.288c-0.509,-1.041 -1.286,-1.735 -2.337,-2.082c-1.42,-0.469 -2.761,-0.291 -4.021,0.534s-2.279,2.245 -3.059,4.26l-0.845,-0.28zm23.754,1.093l0.098,-0.742l12.386,1.659l-0.098,0.742l-0.482,-0.065c-0.989,-0.132 -1.676,0.028 -2.062,0.479c-0.388,0.451 -0.689,1.478 -0.903,3.082l-2.462,18.378c-0.152,1.136 -0.107,1.839 0.135,2.109c0.242,0.271 0.972,0.487 2.189,0.65l2.523,0.339c1.59,0.212 2.493,0.201 2.708,-0.035c0.215,-0.237 0.396,-0.897 0.542,-1.979l2.46,-18.378c0.215,-1.603 0.195,-2.673 -0.059,-3.211c-0.254,-0.536 -0.882,-0.873 -1.883,-1.007l-0.462,-0.062l0.098,-0.742l12.386,1.659l-0.098,0.742l-0.48,-0.065c-0.989,-0.132 -1.676,0.025 -2.062,0.469c-0.388,0.445 -0.687,1.476 -0.905,3.092l-2.402,17.937c-0.176,1.323 -0.215,2.138 -0.113,2.443c0.103,0.307 0.895,0.559 2.378,0.757l3.186,0.427c1.243,0.166 1.953,0.095 2.13,-0.214c0.178,-0.31 0.339,-1.005 0.484,-2.087l2.435,-18.178c0.211,-1.576 0.189,-2.639 -0.064,-3.19c-0.252,-0.551 -0.88,-0.893 -1.881,-1.028l-0.462,-0.062l0.101,-0.742l12.365,1.657l-0.098,0.742l-0.462,-0.063c-1.003,-0.133 -1.697,0.028 -2.084,0.486c-0.388,0.459 -0.689,1.482 -0.903,3.072l-2.4,17.937c-0.205,1.523 -0.201,2.568 0.008,3.133s0.856,0.92 1.939,1.066l0.46,0.062l-0.098,0.742l-41.627,-5.575l0.101,-0.742l0.46,0.062c1.217,0.163 1.974,-0.065 2.275,-0.684c0.3,-0.62 0.55,-1.664 0.747,-3.134l2.363,-17.657c0.217,-1.617 0.195,-2.691 -0.068,-3.222s-0.888,-0.864 -1.877,-0.996l-0.462,-0.063zm55.945,5.07l0.71,11.139l0.546,-0.035c1.736,-0.111 2.958,-0.735 3.668,-1.875s1.106,-2.779 1.186,-4.918l0.767,-0.049l0.913,14.327l-0.767,0.049c-0.261,-1.55 -0.681,-2.807 -1.262,-3.77c-0.583,-0.962 -1.227,-1.593 -1.935,-1.893c-0.708,-0.299 -1.715,-0.407 -3.02,-0.324l0.492,7.709c0.096,1.507 0.217,2.425 0.367,2.752c0.15,0.328 0.406,0.589 0.769,0.782s0.936,0.265 1.715,0.215l1.635,-0.105c2.556,-0.163 4.567,-0.885 6.032,-2.168c1.465,-1.282 2.456,-3.155 2.975,-5.62l0.747,-0.047l-0.677,8.776l-23.651,1.509l-0.047,-0.747l0.909,-0.058c0.794,-0.05 1.424,-0.233 1.89,-0.546c0.339,-0.21 0.587,-0.551 0.745,-1.021c0.127,-0.331 0.148,-1.184 0.059,-2.556l-1.147,-18c-0.08,-1.238 -0.162,-1.996 -0.246,-2.274c-0.164,-0.463 -0.437,-0.809 -0.817,-1.042c-0.535,-0.344 -1.247,-0.488 -2.136,-0.431l-0.907,0.057l-0.047,-0.747l22.902,-1.461l0.517,8.093l-0.767,0.048c-0.515,-1.952 -1.155,-3.337 -1.916,-4.152c-0.761,-0.816 -1.799,-1.385 -3.116,-1.706c-0.769,-0.194 -2.189,-0.225 -4.261,-0.093l-2.825,0.182zm38.496,5.763c2.671,0.029 4.614,0.351 5.829,0.965c1.738,0.871 2.821,2.26 3.244,4.168c0.447,2.014 0.006,3.858 -1.321,5.533c-1.633,2.033 -4.345,3.47 -8.137,4.311l-13.6,3.016l-0.162,-0.73c1.237,-0.274 2.05,-0.575 2.439,-0.904c0.39,-0.327 0.634,-0.695 0.728,-1.104c0.096,-0.407 -0.016,-1.336 -0.336,-2.783l-3.853,-17.372c-0.322,-1.447 -0.613,-2.34 -0.874,-2.675s-0.64,-0.565 -1.137,-0.69c-0.496,-0.124 -1.358,-0.05 -2.581,0.221l-0.162,-0.73l12.831,-2.846c3.067,-0.68 5.299,-0.888 6.696,-0.626c1.397,0.263 2.585,0.856 3.564,1.778c0.977,0.922 1.602,1.995 1.873,3.219c0.287,1.29 0.074,2.542 -0.636,3.756c-0.712,1.213 -2.181,2.378 -4.405,3.493zm-7.304,1.06c1.869,-0.414 3.201,-0.93 3.997,-1.549c0.794,-0.619 1.344,-1.361 1.649,-2.23c0.304,-0.868 0.324,-1.895 0.062,-3.079c-0.263,-1.184 -0.712,-2.103 -1.346,-2.756c-0.636,-0.652 -1.432,-1.08 -2.388,-1.282s-2.392,-0.084 -4.31,0.355l2.336,10.541zm0.343,1.54l1.904,8.587l0.199,0.992c0.158,0.711 0.458,1.206 0.901,1.488c0.441,0.282 1.018,0.344 1.729,0.186c1.052,-0.234 1.972,-0.682 2.755,-1.347a4.905,4.905 0 0 0 1.592,-2.487c0.277,-0.993 0.293,-2.036 0.051,-3.129c-0.277,-1.249 -0.814,-2.307 -1.615,-3.173c-0.8,-0.865 -1.75,-1.383 -2.85,-1.553c-1.1,-0.168 -2.655,-0.024 -4.666,0.436zm30.489,-7.74l2.737,7.093c0.535,1.383 0.956,2.221 1.264,2.514c0.308,0.292 0.72,0.463 1.237,0.509c0.515,0.046 1.352,-0.154 2.509,-0.6l0.271,0.698l-12.999,5.016l-0.269,-0.698c1.182,-0.456 1.941,-0.876 2.277,-1.259s0.521,-0.783 0.556,-1.2c0.033,-0.418 -0.215,-1.318 -0.751,-2.702l-6.405,-16.601c-0.535,-1.384 -0.956,-2.222 -1.264,-2.515c-0.308,-0.292 -0.718,-0.463 -1.227,-0.512c-0.511,-0.049 -1.35,0.152 -2.519,0.603l-0.271,-0.698l11.15,-4.302c3.672,-1.418 6.559,-1.78 8.662,-1.088c2.101,0.691 3.531,2.018 4.288,3.98c0.64,1.66 0.673,3.281 0.098,4.86c-0.574,1.58 -1.686,2.934 -3.332,4.06c-1.103,0.774 -3.107,1.721 -6.012,2.842zm-4.834,-12.526l4.265,11.054c0.425,-0.134 0.745,-0.243 0.958,-0.326c1.535,-0.592 2.542,-1.504 3.02,-2.736s0.347,-2.803 -0.39,-4.716c-0.732,-1.899 -1.684,-3.129 -2.854,-3.689c-1.169,-0.56 -2.579,-0.522 -4.226,0.114l-0.773,0.299zm27.49,-15.252c3.691,-2.342 7.398,-3.03 11.12,-2.066c3.724,0.964 6.612,3.205 8.664,6.721c1.752,3.004 2.417,6.16 1.99,9.468c-0.562,4.386 -2.969,7.819 -7.218,10.299c-4.261,2.487 -8.399,2.966 -12.412,1.437c-3.172,-1.208 -5.671,-3.379 -7.499,-6.511c-2.052,-3.515 -2.567,-7.145 -1.543,-10.888c1.024,-3.742 3.322,-6.562 6.898,-8.46zm0.861,0.995c-2.167,1.264 -3.168,3.332 -3.006,6.203c0.139,2.352 1.202,5.23 3.186,8.629c2.357,4.04 4.811,6.612 7.359,7.715c1.777,0.773 3.557,0.64 5.338,-0.399c1.198,-0.701 2.031,-1.576 2.495,-2.627c0.589,-1.343 0.691,-2.998 0.308,-4.967c-0.384,-1.969 -1.344,-4.269 -2.88,-6.901c-1.826,-3.132 -3.486,-5.304 -4.975,-6.52c-1.489,-1.215 -2.872,-1.878 -4.146,-1.992c-1.276,-0.114 -2.503,0.172 -3.679,0.859zm33.335,-19.768c-0.972,-1.12 -1.758,-1.766 -2.355,-1.939c-0.599,-0.171 -1.422,0.188 -2.468,1.08l-0.691,0.59l-0.486,-0.569l11.189,-9.534l0.486,0.569l-0.724,0.617c-0.964,0.822 -1.446,1.551 -1.444,2.187s0.538,1.58 1.602,2.831l11.698,13.73c1.094,1.282 1.953,1.971 2.581,2.064c0.63,0.093 1.42,-0.267 2.376,-1.08l0.722,-0.617l0.486,0.569l-11.191,9.534l-0.484,-0.569l0.693,-0.59c0.975,-0.831 1.448,-1.567 1.424,-2.211c-0.025,-0.642 -0.566,-1.585 -1.625,-2.826l-9.651,-11.328l2.476,17.812c0.849,0.995 1.582,1.606 2.199,1.832c0.618,0.227 1.471,-0.124 2.558,-1.05l0.724,-0.617l0.484,0.569l-11.189,9.534l-0.484,-0.569l0.691,-0.591c0.975,-0.83 1.453,-1.568 1.432,-2.216c-0.018,-0.647 -0.558,-1.591 -1.617,-2.833l-11.696,-13.729c-1.067,-1.251 -1.881,-1.957 -2.441,-2.117c-0.562,-0.16 -1.391,0.229 -2.489,1.163l-0.693,0.591l-0.484,-0.569l11.189,-9.534l0.484,0.569l-0.722,0.617c-0.944,0.804 -1.403,1.545 -1.375,2.221c0.027,0.676 0.544,1.604 1.547,2.784l9.745,11.437l-2.477,-17.812zm-8.381,-2.291c-2.103,1.792 -3.865,2.811 -5.285,3.056c-1.422,0.245 -2.48,-0.043 -3.18,-0.864c-0.359,-0.421 -0.507,-0.897 -0.445,-1.427s0.308,-0.98 0.739,-1.347c0.831,-0.708 1.926,-0.712 3.285,-0.01c0.745,0.375 1.405,0.521 1.98,0.438c0.577,-0.083 1.188,-0.4 1.834,-0.951c0.759,-0.646 1.219,-1.241 1.377,-1.783s0.119,-1.262 -0.115,-2.161c-0.384,-1.426 -0.174,-2.48 0.626,-3.163c0.431,-0.367 0.915,-0.541 1.455,-0.522s1.013,0.27 1.424,0.752c0.683,0.801 0.763,1.883 0.244,3.247c-0.523,1.364 -1.836,2.943 -3.939,4.735zm34.465,-31.88c-0.946,1.143 -1.375,2.03 -1.286,2.663c0.088,0.634 0.626,1.358 1.611,2.176l14.685,12.164c1.12,0.928 1.984,1.364 2.591,1.308c0.609,-0.057 1.418,-0.674 2.427,-1.851l0.577,0.477l-8.824,10.651l-0.577,-0.477c0.706,-0.851 1.132,-1.509 1.28,-1.973s0.125,-0.907 -0.068,-1.329s-0.7,-0.973 -1.52,-1.653l-16.552,-13.712l-4.204,5.076l6.305,5.224c2.638,2.185 4.594,3.913 5.866,5.186a15.18,15.18 0 0 1 3.043,4.332c0.755,1.615 1.061,3.141 0.917,4.581a6.97,6.97 0 0 1 -1.606,3.842c-0.843,1.018 -1.762,1.585 -2.761,1.703s-1.894,-0.151 -2.683,-0.804c-0.652,-0.542 -1.048,-1.158 -1.186,-1.849c-0.135,-0.691 0.062,-1.358 0.595,-2.002c0.989,-1.193 2.277,-1.238 3.865,-0.132c0.708,0.499 1.256,0.514 1.641,0.046c0.542,-0.653 0.679,-1.712 0.412,-3.176s-1.069,-2.951 -2.407,-4.463c-1.34,-1.511 -3.467,-3.475 -6.385,-5.892l-3.986,-3.302c-1.13,-0.938 -1.945,-1.493 -2.439,-1.667c-0.494,-0.173 -0.993,-0.131 -1.496,0.126c-0.503,0.258 -1.19,0.892 -2.062,1.903l-0.577,-0.478l14.228,-17.175l0.576,0.477z"/>
  <path id="svg_31" fill="#35adea" d="m257.835,364.003l-12.137,-0.714l-1.338,-8.034l-6.487,-0.791l2.608,-11.811l-6.74,-6.74l-5.238,3.741l-20.666,-2.214l-23.61,-23.221l-16.14,0.21l-5.703,48.767l-17.958,-18.594l-18.118,7.665l5.24,-15.532l-10.125,-8.749l0,-7.269l-9.07,-8.246l9.078,-6.525l3.949,2.467l-0.359,-5.733l16.684,0.486l5.683,-0.892l-1.6,-8.313l-13.631,-2.347l-5.985,-0.103l-4.914,5.194l-10.414,-2.651l-4.54,-9.082l5.576,-1.268l-2.363,-4.208l-9.017,-3.43l0,-6.193l-6.409,-3.427l7.593,-7.962l1.526,-8.393l7.895,-11.636l6.376,8.865l0.767,-5.957l10.49,-5.245l4.103,-0.222l4.343,-5.43l5.065,4.502l4.409,-4.104l4.932,7.314l6.573,0l2.423,8.022l2.152,-4.142l5.851,6.499l3.96,-2.939l8.016,0l0.819,1.709l3.32,-4.04l7.33,8.877l5.063,-3.154l6.528,2.647l3.488,-2.043l0.156,-1.037l-9.08,-0.789l-3.036,-9.498l4.985,-1.377l-1.467,-4.171l2.218,-9.192l0.037,0.011l-0.609,-9.423l18.239,2.073l17.806,-8.689l9.199,-0.895c8.461,-5.872 9.513,-5.872 10.447,-5.872l18.274,0l-2.911,9.795l9.234,0.174l8.674,-2.892l0.841,7.151l1.51,-0.303l15.37,-15.68l2.051,13.72l13.161,7.07l10.24,13.275l1.385,4.961l0.121,-0.04l0,-11.193l11.553,9.077l3.449,-0.105l9.062,-8.443l7.735,7.736l9.963,1.63l2.53,3.72l0.316,-0.072c2.587,-4.979 3.732,-5.866 5.56,-5.866l1.307,0l1.001,0.956c0.406,0.322 3.851,2.668 6.873,4.683l4.378,2.918l-8.383,4.485l0.62,6.162l-5.693,7.116l6.052,9.435l-10.898,11.694l-7.07,-6.001l-3.379,0.288l1.196,5.744l-2.343,7.185l7.628,9.057l-12.72,3.561l-3.496,3.303l-5.576,0l0.81,0.39l4.932,11.694c3.395,4.899 3.395,5.686 3.395,6.517c0,0.51 0,1.144 -2.642,9.486l-0.501,1.586l-9.608,2.9l-11.747,-4.699l-8.703,3.033l-5.314,-2.261l-6.867,7.004l-9.197,-5.992l-2.132,1.25l1.988,1.715l-2.679,9.531l-9.115,-3.721l-10.03,0.106l-5.609,9.815l-17.664,17.981l-5.105,-7.388z"/>
  <path id="svg_32" fill="#fff" d="m305.247,203.909l0.788,10.767l14.093,7.572l9.454,12.255l2.101,7.528l5.427,-1.751l0,-7.003l7.353,5.777l5.777,-0.175l7.703,-7.178l6.303,6.303l9.629,1.576l2.976,4.377l3.851,-0.875s2.73,-5.46 3.422,-5.46c0.031,0 0.057,0.011 0.079,0.033c0.525,0.525 7.353,5.077 7.353,5.077l-5.602,2.999l0.7,6.98l-6.303,7.878l5.953,9.279l-7.178,7.703l-5.777,-4.902l-8.228,0.7l1.751,8.403l-2.626,8.053l5.602,6.653l-8.753,2.451l-3.151,2.976l-8.754,0l-1.751,3.676l4.551,2.188l4.596,10.898s3.02,4.333 3.02,4.99c0,0.656 -2.495,8.535 -2.495,8.535l-6.959,2.101l-11.817,-4.727l-8.666,3.02l-6.171,-2.626l-6.565,6.696l-8.666,-5.646l-7.616,4.464l3.808,3.283l-1.182,4.202l-6.434,-2.626l-12.474,0.131l-6.303,11.029l-14.706,14.968l-3.808,-5.515l-11.161,-0.656l-1.313,-7.878l-5.383,-0.657l2.232,-10.11l-9.848,-9.848l-6.434,4.596l-18.382,-1.97l-23.766,-23.372l-20.221,0.263l-5.252,44.905l-14.837,-15.362l-13.655,5.777l3.676,-10.898l-10.635,-9.191l0,-7.222l-7.222,-6.565l4.202,-3.02l7.353,4.596l-0.525,-8.403l13.524,0.394l9.191,-1.444l-2.626,-13.655l-16.019,-2.757l-7.616,-0.131l-4.596,4.858l-7.222,-1.838l-2.101,-4.202l5.777,-1.313l-4.989,-8.885l-8.053,-3.064l0,-5.909l-4.421,-2.363l5.383,-5.646l1.576,-8.666l4.989,-7.353l8.403,11.686l1.576,-12.211l8.403,-4.202l4.858,-0.263l3.151,-3.939l4.727,4.202l3.808,-3.545l3.808,5.646l5.909,0l2.539,8.403l1.663,4.377l3.414,-6.565l4.727,5.252l5.428,-4.027l4.99,0l2.101,4.377l4.026,-4.902l6.653,8.053l6.04,-3.764l6.477,2.626l6.128,-3.589l0.876,-5.843l-10.329,-0.898l-1.401,-4.377l5.077,-1.401l-2.276,-6.478l1.225,-5.077l9.629,2.801l-8.753,-7.178l-0.35,-5.427l15.406,1.751l18.12,-8.841l9.454,-0.919s8.272,-5.777 9.322,-5.777l14.049,0l-2.889,9.716l13.918,0.263l5.515,-1.838l0.788,6.696l5.909,-1.182l11.95,-13.654zm0.753,-7.909l-5.497,3.759l-7.935,9.069l-0.613,-5.206l-7.347,2.449l-4.486,1.495l-4.551,-0.086l0.528,-1.775l2.408,-8.099l-22.498,0c-1.677,0 -2.91,0 -11.566,5.966l-7.82,0.76l-1.132,0.11l-1.022,0.499l-16.469,8.036l-13.581,-1.543l-7.487,-0.851l0.485,7.519l0.327,5.063l-0.689,2.856l-1.225,5.077l-0.437,1.811l0.618,1.757l-1.011,3.334l0,10l-10.303,-9.667l-3.397,4.135l-9.788,0l-2.496,1.852l-6.973,-7.748l-0.678,1.304l-0.861,-2.848l-7.237,0l-6.057,-8.981l-5.008,4.663l-5.403,-4.803l-5.535,6.919l-3.347,0.181l-12.391,6.195l-4.494,-6.249l-5.065,7.465l-4.989,7.353l-0.747,1.102l-0.238,1.31l-1.238,6.81l-4.081,4.281l-5.72,5.999l7.31,3.908l1.09,0.583l0,6.476l4.062,1.545l5.048,1.921l-4.772,1.084l3.592,7.184l2.101,4.202l1.289,2.578l2.793,0.711l7.222,1.838l3.014,0.767l0.151,2.423l-0.543,-0.339l-3.433,2.468l-4.202,3.02l-6.322,4.544l5.761,5.237l5.159,4.69l0,7.317l2.181,1.885l7.431,6.422l-2.322,6.885l-4.48,13.28l12.908,-5.461l9.671,-4.092l11.832,12.251l7.505,6.4l3.286,-10.048l4.609,-39.407l12.058,-0.157l21.892,21.529l1.565,1.539l2.183,0.234l18.382,1.97l2.384,0.255l1.951,-1.393l2.09,-1.492l3.63,3.63l-1.487,6.737l-1.496,6.775l6.887,0.84l0.705,0.086l0.538,3.229l0.827,4.96l5.02,0.295l8.092,0.476l2.061,2.985l4.335,6.278l5.347,-5.443l14.706,-14.969l0.572,-0.582l0.405,-0.708l4.51,-7.892l7.589,-0.08l5.257,2.146l6.537,2.668l1.912,-6.797l1.182,-4.202l0.109,-0.388l2.857,1.861l4.326,2.819l3.615,-3.687l3.554,-3.625l2.214,0.942l2.241,0.954l2.3,-0.802l6.44,-2.244l9.628,3.851l2.05,0.82l2.113,-0.638l6.959,-2.101l3.183,-0.961l1.004,-3.17c2.789,-8.807 2.789,-9.455 2.789,-10.437c0,-1.729 -0.382,-3.123 -3.769,-8.041l-2.142,-4.615l4.291,-6.422l7.255,-2.032l9.428,-2.64l-6.306,-7.489l-3.344,-3.972l1.54,-4.721l0.52,-1.596l-0.295,-1.417l1.96,1.663l4.587,3.892l4.101,-4.401l7.178,-7.703l3.336,-3.58l-2.642,-4.119l-3.51,-5.471l3.476,-4.346l1.606,-2.008l-0.256,-2.558l-0.28,-2.785l1.885,-1.009l9.276,-4.965l-8.754,-5.836c-2.599,-1.733 -5.731,-3.861 -6.628,-4.525l-1.61,-1.61l-2.69,-0.033c-2.578,0 -4.328,1.227 -5.92,3.419l-0.64,-0.941l-2.672,-0.437l-7.625,-1.248l-4.867,-4.867l-4.302,-4.302l-4.451,4.148l-5.968,5.561l-1.121,0.034l-5.554,-4.364l-10.196,-8.011l0,5.463l-5.689,-7.374l-0.822,-1.066l-1.185,-0.637l-11.043,-5.933l-0.535,-7.314l-2.534,-6.448l-3,-1zm-183.018,103.469l1.838,-1.943l2.686,-2.84l4.354,0.075l11.245,1.936l0.571,2.97l-2.172,0.341l-12.939,-0.377l-5.583,-0.162z"/>
  <path id="svg_33" d="m263.362,367.512a1.047,1.047 0 0 1 -0.863,-0.453l-3.516,-5.093l-10.65,-0.627a1.05,1.05 0 0 1 -0.975,-0.876l-1.184,-7.103l-4.604,-0.562a1.052,1.052 0 0 1 -0.898,-1.269l2.109,-9.548l-8.812,-8.812l-5.71,4.079a0.997,0.997 0 0 1 -0.724,0.19l-18.382,-1.97a1.052,1.052 0 0 1 -0.624,-0.295l-23.454,-23.065l-18.86,0.245l-5.143,43.989a1.052,1.052 0 0 1 -1.799,0.607l-14.337,-14.843l-12.993,5.496a1.045,1.045 0 0 1 -1.122,-0.197a1.047,1.047 0 0 1 -0.281,-1.106l3.451,-10.229l-10.102,-8.73c-0.23,-0.2 -0.363,-0.49 -0.363,-0.795l0,-6.757l-6.877,-6.252a1.047,1.047 0 0 1 0.092,-1.63l4.202,-3.021a1.049,1.049 0 0 1 1.169,-0.037l5.621,3.512l-0.398,-6.364a1.054,1.054 0 0 1 1.079,-1.116l13.524,0.394l7.923,-1.261l-2.283,-11.877l-15.303,-2.634l-6.992,-0.109l-4.278,4.523a1.05,1.05 0 0 1 -1.022,0.295l-7.222,-1.838a1.053,1.053 0 0 1 -0.681,-0.548l-2.101,-4.202a1.051,1.051 0 0 1 0.708,-1.494l4.405,-1.001l-4.116,-7.325l-7.698,-2.929a1.05,1.05 0 0 1 -0.677,-0.982l0,-5.279l-3.863,-2.067a1.055,1.055 0 0 1 -0.544,-0.76a1.055,1.055 0 0 1 0.277,-0.891l5.168,-5.418l1.518,-8.356c0.027,-0.145 0.082,-0.281 0.164,-0.402l4.989,-7.353c0.193,-0.284 0.513,-0.455 0.856,-0.461c0.369,0.006 0.667,0.159 0.868,0.437l6.848,9.525l1.235,-9.571c0.045,-0.347 0.261,-0.648 0.572,-0.805l8.403,-4.202c0.129,-0.065 0.269,-0.102 0.412,-0.11l4.388,-0.237l2.858,-3.572a1.052,1.052 0 0 1 1.518,-0.128l4.013,3.567l3.108,-2.894c0.224,-0.209 0.54,-0.31 0.835,-0.275c0.306,0.035 0.581,0.201 0.751,0.455l3.496,5.183l5.351,0c0.464,0 0.872,0.304 1.005,0.747l2.538,8.403l0.806,2.118l2.335,-4.487a1.05,1.05 0 0 1 1.713,-0.218l4.087,4.541l4.659,-3.457c0.181,-0.134 0.4,-0.207 0.626,-0.207l4.99,0c0.404,0 0.771,0.232 0.948,0.596l1.387,2.892l2.981,-3.629a1.05,1.05 0 0 1 0.81,-0.384l0.002,0c0.314,0 0.609,0.14 0.81,0.382l6.065,7.345l5.26,-3.277c0.287,-0.18 0.638,-0.207 0.95,-0.082l6.001,2.432l5.246,-3.074l0.636,-4.241l-9.216,-0.801a1.052,1.052 0 0 1 -0.911,-0.726l-1.399,-4.376a1.052,1.052 0 0 1 0.722,-1.333l3.99,-1.102l-1.902,-5.416a1.046,1.046 0 0 1 -0.031,-0.594l1.225,-5.078c0.068,-0.279 0.246,-0.518 0.494,-0.663c0.25,-0.143 0.548,-0.178 0.821,-0.1l4.7,1.367l-4.784,-3.923a1.056,1.056 0 0 1 -0.382,-0.745l-0.351,-5.428c-0.021,-0.311 0.098,-0.613 0.324,-0.828s0.523,-0.322 0.843,-0.283l15.104,1.716l17.843,-8.707c0.113,-0.055 0.236,-0.089 0.359,-0.102l9.181,-0.892c8.336,-5.809 9.359,-5.809 9.698,-5.809l14.049,0c0.332,0 0.644,0.157 0.841,0.423c0.199,0.266 0.261,0.609 0.166,0.927l-2.495,8.393l12.357,0.233l5.342,-1.781a1.053,1.053 0 0 1 1.377,0.873l0.654,5.566l4.442,-0.888l11.715,-13.387a1.05,1.05 0 0 1 1.838,0.614l0.745,10.191l13.584,7.299c0.131,0.07 0.244,0.166 0.334,0.284l9.454,12.255c0.084,0.107 0.144,0.229 0.181,0.359l1.807,6.475l3.658,-1.181l0,-6.238a1.052,1.052 0 0 1 1.699,-0.826l7.053,5.541l5.002,-0.151l7.414,-6.909a1.05,1.05 0 0 1 1.459,0.026l6.062,6.064l9.296,1.52c0.283,0.047 0.535,0.208 0.698,0.446l2.575,3.785l2.669,-0.607c2.729,-5.382 3.488,-5.505 3.947,-5.58c0.33,-0.056 0.773,0.085 1.013,0.325c0.419,0.382 4.46,3.124 7.193,4.945c0.308,0.205 0.484,0.556 0.466,0.924a1.049,1.049 0 0 1 -0.552,0.876l-4.983,2.666l0.63,6.282c0.029,0.273 -0.053,0.547 -0.224,0.761l-5.833,7.289l5.546,8.644c0.258,0.404 0.211,0.932 -0.115,1.283l-7.179,7.703c-0.382,0.411 -1.02,0.45 -1.448,0.085l-5.445,-4.62l-6.61,0.563l1.508,7.243c0.037,0.18 0.027,0.366 -0.029,0.54l-2.445,7.499l5.227,6.205c0.23,0.274 0.306,0.645 0.199,0.987a1.049,1.049 0 0 1 -0.72,0.702l-8.504,2.381l-2.963,2.798a1.047,1.047 0 0 1 -0.722,0.287l-8.091,0l-1.014,2.133l3.609,1.735c0.23,0.111 0.412,0.303 0.513,0.539l4.553,10.797c3.145,4.522 3.145,5.206 3.145,5.499c0,0.544 -0.856,3.522 -2.544,8.852c-0.105,0.33 -0.365,0.589 -0.698,0.688l-6.959,2.101a1.05,1.05 0 0 1 -0.693,-0.03l-11.452,-4.581l-8.297,2.891a1.032,1.032 0 0 1 -0.755,-0.026l-5.513,-2.345l-6.063,6.185a1.05,1.05 0 0 1 -1.323,0.145l-8.122,-5.291l-5.788,3.392l2.694,2.323c0.31,0.267 0.437,0.687 0.326,1.08l-1.182,4.202a1.056,1.056 0 0 1 -0.55,0.66a1.06,1.06 0 0 1 -0.858,0.029l-6.239,-2.546l-11.659,0.123l-6.003,10.506a1.073,1.073 0 0 1 -0.164,0.215l-14.706,14.969a1.014,1.014 0 0 1 -0.743,0.318zm-14.07,-8.22l10.324,0.607c0.322,0.018 0.62,0.186 0.802,0.451l3.086,4.468l13.719,-13.964l6.235,-10.911c0.187,-0.324 0.529,-0.525 0.903,-0.529l12.474,-0.131c0.072,0.006 0.277,0.026 0.406,0.078l5.344,2.181l0.683,-2.425l-3.301,-2.846c-0.256,-0.222 -0.392,-0.554 -0.361,-0.891s0.224,-0.639 0.515,-0.81l7.616,-4.464a1.055,1.055 0 0 1 1.104,0.026l7.946,5.176l5.962,-6.082a1.05,1.05 0 0 1 1.161,-0.231l5.798,2.467l8.284,-2.887c0.236,-0.084 0.499,-0.078 0.734,0.016l11.477,4.59l6.075,-1.834c1.034,-3.284 2.086,-6.784 2.261,-7.627c-0.277,-0.654 -1.631,-2.755 -2.813,-4.451a1.04,1.04 0 0 1 -0.107,-0.193l-4.44,-10.532l-4.196,-2.016a1.05,1.05 0 0 1 -0.492,-1.398l1.75,-3.676c0.174,-0.366 0.542,-0.599 0.948,-0.599l8.336,0l2.848,-2.69c0.125,-0.117 0.275,-0.202 0.439,-0.248l7.183,-2.011l-4.553,-5.404a1.05,1.05 0 0 1 -0.195,-1.002l2.54,-7.788l-1.693,-8.129a1.05,1.05 0 0 1 0.94,-1.261l8.227,-0.701c0.263,-0.033 0.552,0.065 0.767,0.245l5.014,4.254l5.937,-6.372l-5.511,-8.593a1.051,1.051 0 0 1 0.064,-1.224l6.036,-7.543l-0.659,-6.555a1.05,1.05 0 0 1 0.548,-1.031l4.06,-2.173c-1.777,-1.192 -4.099,-2.765 -5.301,-3.643c-0.63,0.901 -1.723,2.862 -2.575,4.564c-0.142,0.281 -0.4,0.485 -0.708,0.555l-3.851,0.875a1.06,1.06 0 0 1 -1.1,-0.434l-2.725,-4.004l-9.183,-1.503a1.046,1.046 0 0 1 -0.572,-0.294l-5.587,-5.585l-6.961,6.487a1.051,1.051 0 0 1 -0.685,0.282l-5.777,0.174a1.068,1.068 0 0 1 -0.679,-0.225l-5.654,-4.442l0,4.842c0,0.455 -0.293,0.86 -0.728,1l-5.426,1.751a1.04,1.04 0 0 1 -0.819,-0.075a1.045,1.045 0 0 1 -0.515,-0.643l-2.045,-7.331l-9.193,-11.915l-13.893,-7.466a1.05,1.05 0 0 1 -0.552,-0.848l-0.603,-8.261l-10.295,11.764a1.052,1.052 0 0 1 -0.585,0.339l-5.909,1.182a1.038,1.038 0 0 1 -0.823,-0.18a1.042,1.042 0 0 1 -0.425,-0.727l-0.638,-5.415l-4.29,1.43a1.131,1.131 0 0 1 -0.353,0.054l-13.918,-0.263a1.053,1.053 0 0 1 -0.987,-1.35l2.489,-8.366l-12.642,0c-0.677,0.191 -5.09,3.053 -8.721,5.589a1.06,1.06 0 0 1 -0.499,0.184l-9.267,0.901l-17.947,8.758a0.986,0.986 0 0 1 -0.581,0.1l-14.16,-1.608l0.242,3.719l8.401,6.888c0.386,0.317 0.494,0.861 0.263,1.302a1.04,1.04 0 0 1 -1.223,0.519l-8.574,-2.494l-0.895,3.706l2.173,6.185a1.051,1.051 0 0 1 -0.712,1.36l-4.021,1.11l0.853,2.669l9.632,0.837a1.046,1.046 0 0 1 0.947,1.202l-0.876,5.843c-0.047,0.314 -0.234,0.59 -0.507,0.751l-6.126,3.589c-0.281,0.166 -0.62,0.19 -0.925,0.067l-5.985,-2.425l-5.584,3.481a1.05,1.05 0 0 1 -1.366,-0.223l-5.839,-7.07l-3.217,3.917a1.032,1.032 0 0 1 -0.938,0.376a1.055,1.055 0 0 1 -0.823,-0.589l-1.814,-3.781l-3.982,0l-5.147,3.82a1.05,1.05 0 0 1 -1.407,-0.141l-3.711,-4.126l-2.716,5.22a1.063,1.063 0 0 1 -0.993,0.564a1.052,1.052 0 0 1 -0.921,-0.675l-1.664,-4.377l-2.335,-7.726l-5.129,0c-0.349,0 -0.675,-0.173 -0.87,-0.463l-3.123,-4.627l-2.907,2.707a1.05,1.05 0 0 1 -1.414,0.016l-3.9,-3.466l-2.46,3.075a1.058,1.058 0 0 1 -0.763,0.393l-4.641,0.25l-7.708,3.854l-1.504,11.656a1.05,1.05 0 0 1 -1.896,0.479l-7.525,-10.465l-4.021,5.925l-1.535,8.447a1.054,1.054 0 0 1 -0.273,0.538l-4.431,4.646l3.201,1.712c0.343,0.183 0.556,0.539 0.556,0.926l0,5.184l7.378,2.807c0.23,0.087 0.423,0.252 0.542,0.468l4.989,8.884a1.052,1.052 0 0 1 -0.683,1.539l-4.47,1.016l1.286,2.575l6.159,1.567l4.171,-4.41c0.203,-0.213 0.466,-0.363 0.782,-0.328l7.616,0.131l16.179,2.773c0.431,0.074 0.771,0.407 0.853,0.837l2.626,13.655a1.053,1.053 0 0 1 -0.87,1.236l-9.191,1.444l-12.566,-0.35l0.453,7.255a1.049,1.049 0 0 1 -1.605,0.956l-6.756,-4.222l-2.577,1.852l6.261,5.692c0.22,0.199 0.345,0.481 0.345,0.778l0,6.742l10.272,8.876c0.322,0.279 0.445,0.726 0.308,1.13l-2.93,8.685l11.503,-4.867a1.049,1.049 0 0 1 1.165,0.238l13.296,13.766l4.994,-42.702a1.052,1.052 0 0 1 1.03,-0.928l20.221,-0.263l0.014,0c0.275,0 0.54,0.108 0.737,0.302l23.505,23.115l17.621,1.887l6.108,-4.363c0.419,-0.3 0.991,-0.253 1.354,0.112l9.848,9.848c0.254,0.253 0.361,0.619 0.283,0.969l-1.984,8.981l4.237,0.517c0.462,0.055 0.833,0.41 0.909,0.87l1.178,7.055zm134.171,-120.893l0.033,0.031c-0.013,-0.012 -0.025,-0.022 -0.033,-0.031z"/>
  <path id="svg_34" fill="#fff" d="m164.572,305.873l-11.09,-11.09l7.121,-13.975l-13.975,7.12l-11.09,-11.09l2.454,15.491l-13.975,7.12l15.491,2.454l2.454,15.491l7.12,-13.975l15.49,2.454z"/>
  <path id="svg_35" d="m141.392,320.99l-2.866,-18.103l-18.105,-2.868l16.333,-8.32l-2.868,-18.104l12.96,12.961l16.333,-8.32l-8.323,16.331l12.962,12.96l-18.103,-2.867l-8.323,16.33zm-13.779,-22.11l12.878,2.039l2.041,12.878l5.917,-11.617l12.88,2.04l-9.22,-9.22l5.919,-11.618l-11.618,5.92l-9.218,-9.219l2.039,12.877l-11.618,5.92z"/>
 </g>
</svg>